<?xml version="1.0" standalone="no"?>
  <!DOCTYPE svg PUBLIC "-//W3C//DTD SVG 1.1//EN" "http://www.w3.org/Graphics/SVG/1.1/DTD/svg11.dtd" >
  <svg>
  <metadata>
  Created by font-carrier
  </metadata>
  <defs>
  <font id="PTSans-BoldItalic" horiz-adv-x="1229" vert-adv-y="1229" >
    <font-face
      
      font-family="PT Sans"
      
      font-weight="400"
      
      font-stretch="normal"
      
      units-per-em="1000"
      
      ascent="1018"
      
      descent="-276"
      
    />
      <missing-glyph />

      

      
      <glyph glyph-name="uni21" unicode="&#x21;" d="M217 700L345 700L275 371L216 208L138 208L147 371L217 700M74 66Q74 101 96 121.50Q118 142 154 142Q191 142 213 121.50Q235 101 235 66Q235 31 213 10Q191-11 154-11Q118-11 96 10Q74 31 74 66Z"  horiz-adv-x="283" vert-adv-y="1000"  />

      
      <glyph glyph-name="uni22" unicode="&#x22;" d="M116 700L224 700L145 484L70 484L116 700M256 700L364 700L285 484L210 484L256 700Z"  horiz-adv-x="354" vert-adv-y="1000"  />

      
      <glyph glyph-name="uni23" unicode="&#x23;" d="M318 205L229 205L193 51L86 51L122 205L48 205L70 302L145 302L170 408L98 408L120 505L193 505L228 649L335 649L300 505L389 505L424 649L531 649L496 505L568 505L543 408L473 408L448 302L517 302L493 205L425 205L389 51L282 51L318 205M252 302L341 302L366 408L277 408L252 302Z"  horiz-adv-x="545" vert-adv-y="1000"  />

      
      <glyph glyph-name="uni24" unicode="&#x24;" d="M192-10Q140-3 108 13Q76 29 59 43L106 140Q120 130 148.50 117Q177 104 215 97L262 318Q239 333 217 350.50Q195 368 177.50 390.50Q160 413 149.50 441.50Q139 470 139 508Q139 556 155.50 592Q172 628 200.50 653Q229 678 266 692Q303 706 345 711L365 800L464 800L445 710Q483 705 512 695.50Q541 686 562 675L512 573Q498 581 474 589Q450 597 421 602L378 399Q401 383 424 365Q447 347 465 323.50Q483 300 494 270.50Q505 241 505 203Q505 155 489 117.50Q473 80 444.50 53Q416 26 376.50 10Q337-6 290-11L272-100L173-100L192-10M272 94Q325 98 350 125Q375 152 375 188Q375 220 357 242Q339 264 312 284L272 94M364 606Q316 604 292.50 581Q269 558 269 524Q269 495 285.50 474.50Q302 454 328 434L364 606Z"  horiz-adv-x="545" vert-adv-y="1000"  />

      
      <glyph glyph-name="uni25" unicode="&#x25;" d="M55 499Q55 553 73.50 593Q92 633 122 659.50Q152 686 188.50 699Q225 712 261 712Q327 712 361.50 681.50Q396 651 396 592Q396 535 379 493.50Q362 452 333 425Q304 398 266.50 385Q229 372 189 372Q127 372 91 406.50Q55 441 55 499M165 505Q164 483 175 469.50Q186 456 207 456Q240 456 263 490.50Q286 525 286 579Q286 628 243 628Q226 628 212 618Q198 608 187 591.50Q176 575 170 552.50Q164 530 165 505M420 128Q420 182 438.50 222Q457 262 487 288.50Q517 315 553.50 328Q590 341 626 341Q692 341 726.50 310.50Q761 280 761 221Q761 164 744 122.50Q727 81 698 54Q669 27 631.50 14Q594 1 554 1Q492 1 456 35.50Q420 70 420 128M530 134Q529 112 540 98.50Q551 85 572 85Q605 85 628 119.50Q651 154 651 208Q651 257 608 257Q591 257 577 247Q563 237 552 220.50Q541 204 535 181.50Q529 159 530 134M656 714L729 648L153-14L80 55L656 714Z"  horiz-adv-x="804" vert-adv-y="1000"  />

      
      <glyph glyph-name="uni26" unicode="&#x26;" d="M73 162Q73 208 91.50 249Q110 290 140.50 324Q171 358 209.50 385.50Q248 413 289 433Q272 466 267.50 493Q263 520 263 547Q263 580 274 610Q285 640 309 663Q333 686 370 700Q407 714 458 714Q498 714 523.50 704Q549 694 564 677.50Q579 661 584.50 640.50Q590 620 590 600Q590 549 549.50 502.50Q509 456 434 415Q456 361 479.50 316Q503 271 535 227Q561 252 587 289.50Q613 327 635 366L714 316Q704 298 689 276.50Q674 255 657.50 233Q641 211 624.50 191.50Q608 172 595 158Q619 129 647.50 103.50Q676 78 704 66L617-30Q602-24 586-12.50Q570-1 554.50 12.50Q539 26 525 41Q511 56 501 70Q458 37 401.50 11.50Q345-14 270-14Q224-14 187.50-0.50Q151 13 125.50 36.50Q100 60 86.50 92Q73 124 73 162M443 149Q406 202 377 254.50Q348 307 329 354Q270 314 236.50 273.50Q203 233 203 186Q203 144 230 120Q257 96 310 96Q348 96 384.50 112.50Q421 129 443 149M384 553Q384 531 387.50 515.50Q391 500 402 476Q444 501 467 525Q490 549 490 576Q490 595 481 606Q472 617 447 617Q416 617 400 598Q384 579 384 553Z"  horiz-adv-x="783" vert-adv-y="1000"  />

      
      <glyph glyph-name="uni27" unicode="&#x27;" d="M137 700L245 700L166 484L91 484L137 700Z"  horiz-adv-x="218" vert-adv-y="1000"  />

      
      <glyph glyph-name="uni28" unicode="&#x28;" d="M157-218Q128-180 110-140.50Q92-101 81-62Q70-23 66 14.50Q62 52 62 87Q62 183 85 273.50Q108 364 146.50 444.50Q185 525 236 593Q287 661 343 712L407 658Q360 606 319.50 541.50Q279 477 249 404Q219 331 201.50 252.50Q184 174 184 94Q184 31 193-30.50Q202-92 234-164L157-218Z"  horiz-adv-x="310" vert-adv-y="1000"  />

      
      <glyph glyph-name="uni29" unicode="&#x29;" d="M183 711Q228 651 248.50 575.50Q269 500 269 409Q269 313 246.50 222Q224 131 185.50 50Q147-31 96.50-100Q46-169-10-220L-77-165Q-32-115 9-49.50Q50 16 80.50 90Q111 164 129 242Q147 320 147 395Q147 478 135 541.50Q123 605 96 655L183 711Z"  horiz-adv-x="310" vert-adv-y="1000"  />

      
      <glyph glyph-name="uni2a" unicode="&#x2a;" d="M182 731L210 685L225 626L240 681L268 730L331 695L301 643L254 600L318 616L375 616L375 543L321 543L260 559L310 512L335 470L271 433L244 479L224 543L211 485L182 436L117 473L147 522L192 559L137 543L78 543L78 617L137 617L196 600L146 644L118 694L182 731Z"  horiz-adv-x="356" vert-adv-y="1000"  />

      
      <glyph glyph-name="uni2b" unicode="&#x2b;" d="M58 394L220 394L220 563L337 563L337 394L500 394L500 282L337 282L337 111L220 111L220 282L58 282L58 394Z"  horiz-adv-x="505" vert-adv-y="1000"  />

      
      <glyph glyph-name="uni2c" unicode="&#x2c;" d="M60-5Q43-4 28 12Q13 28 13 54Q13 94 38.50 116Q64 138 99 138Q134 138 151 115.50Q168 93 168 64L168 62Q167 13 148-23.50Q129-60 102.50-85.50Q76-111 47.50-126.50Q19-142 0-148L-26-94Q3-83 27-58Q51-33 60-5Z"  horiz-adv-x="226" vert-adv-y="1000"  />

      
      <glyph glyph-name="uni2d" unicode="&#x2d;" d="M81 340L320 340L295 236L56 236L81 340Z"  horiz-adv-x="343" vert-adv-y="1000"  />

      
      <glyph glyph-name="uni2e" unicode="&#x2e;" d="M33 66Q33 101 55 121.50Q77 142 113 142Q150 142 172 121.50Q194 101 194 66Q194 31 172 10Q150-11 113-11Q77-11 55 10Q33 31 33 66Z"  horiz-adv-x="251" vert-adv-y="1000"  />

      
      <glyph glyph-name="uni2f" unicode="&#x2f;" d="M432 712L518 666L8-142L-77-94L432 712Z"  horiz-adv-x="388" vert-adv-y="1000"  />

      
      <glyph glyph-name="uni30" unicode="&#x30;" d="M55 229Q55 333 78.50 421.50Q102 510 144 575Q186 640 243.50 677Q301 714 369 714Q408 714 442.50 702Q477 690 503 662Q529 634 544 587Q559 540 559 471Q559 378 537.50 290.50Q516 203 475.50 135.50Q435 68 376.50 27Q318-14 245-14Q196-14 160 5Q124 24 101 56.50Q78 89 66.50 133.50Q55 178 55 229M179 230Q179 189 186 163Q193 137 204.50 122Q216 107 232 101.50Q248 96 266 96Q301 96 331.50 129Q362 162 385 215Q408 268 421.50 334.50Q435 401 435 469Q435 500 431.50 525Q428 550 418.50 567.50Q409 585 393 594.50Q377 604 352 604Q319 604 288 573Q257 542 232.50 490.50Q208 439 193.50 371Q179 303 179 230Z"  horiz-adv-x="545" vert-adv-y="1000"  />

      
      <glyph glyph-name="uni31" unicode="&#x31;" d="M81 110L213 110L298 505L326 573L268 514L171 452L132 529L389 712L459 712L331 110L460 110L437 0L58 0L81 110Z"  horiz-adv-x="545" vert-adv-y="1000"  />

      
      <glyph glyph-name="uni32" unicode="&#x32;" d="M540 560Q540 504 514 446.50Q488 389 448 334Q408 279 360 230Q312 181 269 142L210 101L210 96L280 110L459 110L436 0L36 0L50 67Q78 93 116 128.50Q154 164 195 204.50Q236 245 275.50 288.50Q315 332 346 374Q377 416 396.50 455Q416 494 416 526Q416 559 399 580Q382 601 334 601Q303 601 270.50 586.50Q238 572 206 549L176 643Q224 678 272.50 696Q321 714 385 714Q459 714 499.50 671.50Q540 629 540 560Z"  horiz-adv-x="545" vert-adv-y="1000"  />

      
      <glyph glyph-name="uni33" unicode="&#x33;" d="M193 389L340 554L404 599L328 590L169 590L193 700L556 700L541 629L370 439L322 412L322 407L362 413Q382 411 404.50 401Q427 391 446 371.50Q465 352 477.50 321.50Q490 291 490 247Q490 190 471.50 142Q453 94 416 59.50Q379 25 324 5.50Q269-14 197-14Q154-14 110-6Q66 2 41 17L98 128Q118 115 147 107Q176 99 214 99Q253 99 281.50 110Q310 121 329 139Q348 157 357 180.50Q366 204 366 228Q366 276 340.50 298Q315 320 248 320L178 320L193 389Z"  horiz-adv-x="545" vert-adv-y="1000"  />

      
      <glyph glyph-name="uni34" unicode="&#x34;" d="M535 195L430 195L389 0L274 0L315 195L28 195L43 269L436 705L538 705L452 298L557 298L535 195M370 452L396 536L393 536L345 464L219 329L164 291L226 298L337 298L370 452Z"  horiz-adv-x="545" vert-adv-y="1000"  />

      
      <glyph glyph-name="uni35" unicode="&#x35;" d="M201 99Q243 99 273 111Q303 123 322.50 143Q342 163 351.50 189Q361 215 361 244Q361 294 330.50 315Q300 336 229 336L152 333L229 700L556 700L531 578L311 578L282 440L319 444Q359 444 389.50 431Q420 418 441 395Q462 372 473 340Q484 308 484 271Q484 133 406 59.50Q328-14 182-14Q162-14 141-11.50Q120-9 100.50-5Q81-1 64.50 4.50Q48 10 36 16L92 122Q112 112 137.50 105.50Q163 99 201 99Z"  horiz-adv-x="545" vert-adv-y="1000"  />

      
      <glyph glyph-name="uni36" unicode="&#x36;" d="M516 255Q516 201 500 152Q484 103 451.50 66.50Q419 30 370 8Q321-14 256-14Q224-14 189.50-2.50Q155 9 126.50 35.50Q98 62 80 105Q62 148 62 211Q62 313 100 401.50Q138 490 200.50 556.50Q263 623 343 664Q423 705 508 714L515 611Q465 603 417 582.50Q369 562 327.50 530.50Q286 499 254 459Q222 419 205 373Q232 402 271.50 417Q311 432 353 432Q430 432 473 383.50Q516 335 516 255M394 232Q394 272 373.50 297Q353 322 305 322Q267 322 234 305Q201 288 184 262Q182 252 180.50 239.50Q179 227 179 219Q179 165 201.50 130.50Q224 96 271 96Q328 96 361 134Q394 172 394 232Z"  horiz-adv-x="545" vert-adv-y="1000"  />

      
      <glyph glyph-name="uni37" unicode="&#x37;" d="M62 0L391 539L442 588L384 578L149 578L174 700L604 700L596 662L191 0L62 0Z"  horiz-adv-x="545" vert-adv-y="1000"  />

      
      <glyph glyph-name="uni38" unicode="&#x38;" d="M54 153Q54 191 67 223.50Q80 256 102 282.50Q124 309 153 329Q182 349 214 361Q200 374 187.50 387.50Q175 401 165.50 418Q156 435 150.50 457.50Q145 480 145 510Q145 559 163.50 597.50Q182 636 214 661.50Q246 687 288 700.50Q330 714 377 714Q461 714 505 670.50Q549 627 549 559Q549 524 537.50 495.50Q526 467 506.50 443Q487 419 461.50 399.50Q436 380 408 365Q453 330 472.50 290.50Q492 251 492 205Q492 154 473.50 113.50Q455 73 422 44.50Q389 16 343 1Q297-14 242-14Q203-14 168.50-3Q134 8 108.50 29Q83 50 68.50 81Q54 112 54 153M374 190Q374 213 366.50 231Q359 249 346.50 263.50Q334 278 317 290.50Q300 303 282 314Q231 288 201 253.50Q171 219 171 177Q171 142 192 119Q213 96 261 96Q283 96 303.50 102Q324 108 340 119.50Q356 131 365 148.50Q374 166 374 190M263 511Q263 476 285 451.50Q307 427 341 407Q359 420 375 435Q391 450 403.50 466Q416 482 423.50 499Q431 516 431 532Q431 568 413 586Q395 604 362 604Q320 604 291.50 580Q263 556 263 511Z"  horiz-adv-x="545" vert-adv-y="1000"  />

      
      <glyph glyph-name="uni39" unicode="&#x39;" d="M99 456Q99 516 119 564Q139 612 174.50 645Q210 678 257.50 696Q305 714 361 714Q403 714 439 701Q475 688 501.50 660.50Q528 633 543.50 591.50Q559 550 559 493Q559 413 538.50 345.50Q518 278 483.50 223Q449 168 403.50 125Q358 82 308 52Q258 22 206.50 5.50Q155-11 109-14L103 88Q158 98 206.50 119.50Q255 141 294 170.50Q333 200 361.50 236.50Q390 273 406 312Q377 289 343 277.50Q309 266 261 266Q233 266 204 276.50Q175 287 152 309.50Q129 332 114 368.50Q99 405 99 456M221 475Q221 446 228.50 427Q236 408 249 396Q262 384 277.50 379Q293 374 310 374Q348 374 381 386Q414 398 433 418Q436 429 438.50 449Q441 469 441 478Q441 535 418.50 570.50Q396 606 345 606Q321 606 299 598.50Q277 591 259.50 575Q242 559 231.50 534Q221 509 221 475Z"  horiz-adv-x="545" vert-adv-y="1000"  />

      
      <glyph glyph-name="uni3a" unicode="&#x3a;" d="M90 66Q90 101 112 121.50Q134 142 170 142Q207 142 229 121.50Q251 101 251 66Q251 31 229 10Q207-11 170-11Q134-11 112 10Q90 31 90 66M165 428Q165 463 187 483.50Q209 504 245 504Q282 504 304 483.50Q326 463 326 428Q326 393 304 372Q282 351 245 351Q209 351 187 372Q165 393 165 428Z"  horiz-adv-x="314" vert-adv-y="1000"  />

      
      <glyph glyph-name="uni3b" unicode="&#x3b;" d="M138-5Q121-4 106 12Q91 28 91 54Q91 94 116.50 116Q142 138 177 138Q212 138 229 115.50Q246 93 246 64L246 62Q245 13 226-23.50Q207-60 180.50-85.50Q154-111 125.50-126.50Q97-142 78-148L52-94Q81-83 105-58Q129-33 138-5M158 428Q158 463 180 483.50Q202 504 238 504Q275 504 297 483.50Q319 463 319 428Q319 393 297 372Q275 351 238 351Q202 351 180 372Q158 393 158 428Z"  horiz-adv-x="307" vert-adv-y="1000"  />

      
      <glyph glyph-name="uni3c" unicode="&#x3c;" d="M51 285L51 355L437 586L494 496L270 357L179 322L269 291L499 154L442 64L51 285Z"  horiz-adv-x="505" vert-adv-y="1000"  />

      
      <glyph glyph-name="uni3d" unicode="&#x3d;" d="M58 490L500 490L500 378L58 378L58 490M58 299L500 299L500 187L58 187L58 299Z"  horiz-adv-x="505" vert-adv-y="1000"  />

      
      <glyph glyph-name="uni3e" unicode="&#x3e;" d="M508 365L508 295L121 64L65 155L288 293L379 329L289 359L60 497L116 586L508 365Z"  horiz-adv-x="505" vert-adv-y="1000"  />

      
      <glyph glyph-name="uni3f" unicode="&#x3f;" d="M127 208Q133 262 151.50 300.50Q170 339 194.50 367.50Q219 396 246.50 417.50Q274 439 296.50 459Q319 479 334 500Q349 521 349 549Q349 576 333.50 591Q318 606 278 606Q247 606 210 592.50Q173 579 145 560L114 654Q155 679 203 696.50Q251 714 320 714Q404 714 443 678.50Q482 643 482 583Q482 530 466 493.50Q450 457 425 429.50Q400 402 370 380.50Q340 359 312.50 335Q285 311 263 281Q241 251 233 208L127 208M82 66Q82 101 104 121.50Q126 142 162 142Q199 142 221 121.50Q243 101 243 66Q243 31 221 10Q199-11 162-11Q126-11 104 10Q82 31 82 66Z"  horiz-adv-x="430" vert-adv-y="1000"  />

      
      <glyph glyph-name="uni40" unicode="&#x40;" d="M706 484L776 484L727 213Q725 201 724 190.50Q723 180 723 172Q723 124 760 124Q786 124 811.50 136Q837 148 857 173Q877 198 889 236Q901 274 901 326Q901 401 876 454.50Q851 508 807.50 542.50Q764 577 705 593Q646 609 579 609Q501 609 433.50 581Q366 553 316.50 503.50Q267 454 239 386.50Q211 319 211 240Q211 162 234.50 100Q258 38 303.50-6Q349-50 415.50-73.50Q482-97 568-97Q597-97 634-89.50Q671-82 701-68L732-164Q690-184 648-192Q606-200 551-200Q453-200 370.50-172Q288-144 228-89Q168-34 134 47.50Q100 129 100 236Q100 345 139 433Q178 521 244 583Q310 645 397 678.50Q484 712 581 712Q673 712 752 685.50Q831 659 889 609.50Q947 560 980 488.50Q1013 417 1013 326Q1013 262 990 206Q967 150 928 109Q889 68 836.50 44Q784 20 724 20Q699 20 677.50 25.50Q656 31 641 44Q626 57 619 78Q612 99 615 130L611 130Q596 109 579 89Q562 69 541 53.50Q520 38 495 29Q470 20 440 20Q415 20 393.50 30.50Q372 41 356 60Q340 79 330.50 106Q321 133 321 166Q321 228 341 286.50Q361 345 395 390Q429 435 474.50 462.50Q520 490 571 490Q606 490 630 479.50Q654 469 675 452L706 484M643 363Q629 374 615 380.50Q601 387 581 387Q551 387 525.50 369.50Q500 352 481.50 325Q463 298 452.50 264.50Q442 231 442 199Q442 166 456 144.50Q470 123 503 123Q517 123 533 131.50Q549 140 564 154.50Q579 169 592.50 187Q606 205 617 225L643 363Z"  horiz-adv-x="1059" vert-adv-y="1000"  />

      
      <glyph glyph-name="uni41" unicode="&#x41;" d="M387 155L183 155L100 0L-38 0L351 705L447 705L538 0L407 0L387 155M240 265L382 265L366 421L367 531L362 531L322 420L240 265Z"  horiz-adv-x="582" vert-adv-y="1000"  />

      
      <glyph glyph-name="uni42" unicode="&#x42;" d="M166 695Q185 698 209 701Q233 704 260 706Q287 708 315.50 709Q344 710 371 710Q417 710 456.50 700.50Q496 691 524.50 671Q553 651 569.50 619.50Q586 588 586 544Q586 511 575 480.50Q564 450 543.50 426Q523 402 494.50 386Q466 370 430 365L430 360Q449 356 468 345.50Q487 335 502 318.50Q517 302 526 279.50Q535 257 535 229Q535 165 510 119.50Q485 74 443 45.50Q401 17 345 3.50Q289-10 227-10Q211-10 185.50-10Q160-10 131-8.50Q102-7 73-4Q44-1 20 5L166 695M167 109Q171 107 181.50 106Q192 105 204.50 104.50Q217 104 230 103.50Q243 103 252 103Q277 103 303.50 109Q330 115 351.50 129Q373 143 387 165Q401 187 401 219Q401 244 390 260Q379 276 361 285.50Q343 295 319.50 298.50Q296 302 271 302L207 302L167 109M230 406L273 406Q287 406 306 406.50Q325 407 338 409Q356 412 376.50 419Q397 426 413.50 439Q430 452 441 472Q452 492 452 522Q452 565 423.50 581Q395 597 351 597Q325 597 303 596Q281 595 269 593L230 406Z"  horiz-adv-x="568" vert-adv-y="1000"  />

      
      <glyph glyph-name="uni43" unicode="&#x43;" d="M483 29Q416-14 319-14Q253-14 204 8Q155 30 122.50 69Q90 108 74 160Q58 212 58 272Q58 390 91 473.50Q124 557 178 610.50Q232 664 301.50 689Q371 714 444 714Q501 714 541.50 705.50Q582 697 605 686L554 570Q534 581 506 586.50Q478 592 435 592Q384 592 340 571Q296 550 264 511Q232 472 213.50 416Q195 360 195 289Q195 204 237.50 156Q280 108 351 108Q396 108 425.50 117.50Q455 127 481 141L483 29Z"  horiz-adv-x="537" vert-adv-y="1000"  />

      
      <glyph glyph-name="uni44" unicode="&#x44;" d="M168 700Q189 703 214 705Q239 707 260.50 708Q282 709 298 709Q307 709 323.50 709.50Q340 710 360 710Q421 710 471 694.50Q521 679 556.50 647Q592 615 611.50 565Q631 515 631 446Q631 402 623.50 351.50Q616 301 598 250Q580 199 548.50 152Q517 105 469.50 69Q422 33 355.50 11Q289-11 201-11Q186-11 171-10.50Q156-10 150-10Q130-9 105.50-7.50Q81-6 56.50-4.50Q32-3 20-1L168 700M174 114Q178 113 186.50 112.50Q195 112 205 111.50Q215 111 224 111Q233 111 238 111Q308 111 357 142.50Q406 174 436.50 221.50Q467 269 480.50 324.50Q494 380 494 428Q494 508 460.50 548Q427 588 349 588Q329 588 307 587Q285 586 273 584L174 114Z"  horiz-adv-x="620" vert-adv-y="1000"  />

      
      <glyph glyph-name="uni45" unicode="&#x45;" d="M168 700L298 700L562 700L536 578L272 578L237 415L478 415L451 293L212 293L175 122L444 122L419 0L150 0L20 0L168 700Z"  horiz-adv-x="503" vert-adv-y="1000"  />

      
      <glyph glyph-name="uni46" unicode="&#x46;" d="M168 700L298 700L562 700L536 578L272 578L235 405L478 405L453 283L210 283L150 0L20 0L168 700Z"  horiz-adv-x="489" vert-adv-y="1000"  />

      
      <glyph glyph-name="uni47" unicode="&#x47;" d="M369 365L579 365L513 53Q468 18 418.50 2Q369-14 312-14Q257-14 210.50 5Q164 24 130 60Q96 96 77 149Q58 202 58 270Q58 385 89.50 469Q121 553 175 607.50Q229 662 301 688Q373 714 453 714Q510 714 554.50 704.50Q599 695 622 685L570 570Q549 580 517.50 586Q486 592 441 592Q388 592 343 572Q298 552 265 513Q232 474 213.50 416.50Q195 359 195 285Q195 202 234 155Q273 108 339 108Q388 108 425 133L453 266L351 282L369 365Z"  horiz-adv-x="585" vert-adv-y="1000"  />

      
      <glyph glyph-name="uni48" unicode="&#x48;" d="M455 293L212 293L150 0L20 0L168 700L298 700L238 415L481 415L541 700L671 700L523 0L393 0L455 293Z"  horiz-adv-x="624" vert-adv-y="1000"  />

      
      <glyph glyph-name="uni49" unicode="&#x49;" d="M183 700L312 700L164 0L35 0L183 700Z"  horiz-adv-x="278" vert-adv-y="1000"  />

      
      <glyph glyph-name="uni4a" unicode="&#x4a;" d="M239 700L369 700L260 188Q251 146 237 109.50Q223 73 200 46Q177 19 142.50 3.50Q108-12 59-12Q31-12 0-6Q-31 0-51 11L-1 123Q22 110 53 110Q74 110 88 118.50Q102 127 111.50 142Q121 157 127 177.50Q133 198 139 223L239 700Z"  horiz-adv-x="324" vert-adv-y="1000"  />

      
      <glyph glyph-name="uni4b" unicode="&#x4b;" d="M260 299L213 299L150 0L20 0L168 700L298 700L232 390L263 401L500 700L656 700L404 403L344 368L388 329L540 0L395 0L260 299Z"  horiz-adv-x="593" vert-adv-y="1000"  />

      
      <glyph glyph-name="uni4c" unicode="&#x4c;" d="M441 0L150 0L20 0L168 700L298 700L175 122L466 122L441 0Z"  horiz-adv-x="495" vert-adv-y="1000"  />

      
      <glyph glyph-name="uni4d" unicode="&#x4d;" d="M613 363L657 501L651 501L585 388L388 129L347 129L253 391L235 501L230 501L220 364L143 0L20 0L168 700L283 700L388 380L401 300L406 300L452 382L688 700L813 700L665 0L536 0L613 363Z"  horiz-adv-x="767" vert-adv-y="1000"  />

      
      <glyph glyph-name="uni4e" unicode="&#x4e;" d="M267 366L234 478L229 478L220 366L143 0L20 0L170 705L260 705L432 331L463 222L469 222L476 331L555 700L678 700L528-5L438-5L267 366Z"  horiz-adv-x="631" vert-adv-y="1000"  />

      
      <glyph glyph-name="uni4f" unicode="&#x4f;" d="M58 262Q58 355 83.50 437.50Q109 520 156 581.50Q203 643 269.50 678.50Q336 714 418 714Q472 714 515.50 698Q559 682 589.50 648.50Q620 615 637 564Q654 513 654 443Q654 349 628.50 266Q603 183 556.50 120.50Q510 58 445.50 22Q381-14 303-14Q185-14 122 55.50Q59 125 58 262M195 266Q195 194 222.50 151Q250 108 313 108Q359 108 396.50 135.50Q434 163 461 209.50Q488 256 502.50 316Q517 376 517 441Q517 520 486 556Q455 592 401 592Q356 592 318.50 566Q281 540 253.50 495.50Q226 451 210.50 391.50Q195 332 195 266Z"  horiz-adv-x="644" vert-adv-y="1000"  />

      
      <glyph glyph-name="uni50" unicode="&#x50;" d="M167 693Q209 701 256.50 705.50Q304 710 352 710Q403 710 446.50 698.50Q490 687 522.50 663Q555 639 573 601.50Q591 564 591 512Q591 434 564 381.50Q537 329 492.50 296.50Q448 264 391 250.50Q334 237 275 237Q270 237 259.50 237Q249 237 237.50 237.50Q226 238 215.50 239Q205 240 200 241L150 0L20 0L167 693M226 359Q230 358 237 357Q244 356 252.50 355.50Q261 355 268.50 355Q276 355 280 355Q314 355 345.50 362.50Q377 370 401 386.50Q425 403 439.50 430Q454 457 454 496Q454 525 444.50 544Q435 563 419 573.50Q403 584 381.50 588Q360 592 336 592Q318 592 301.50 590.50Q285 589 274 587L226 359Z"  horiz-adv-x="550" vert-adv-y="1000"  />

      
      <glyph glyph-name="uni51" unicode="&#x51;" d="M58 262Q58 355 83.50 437.50Q109 520 156 581.50Q203 643 269.50 678.50Q336 714 418 714Q472 714 515.50 698Q559 682 589.50 648.50Q620 615 637 564Q654 513 654 443Q654 349 628.50 266Q603 183 556.50 120.50Q510 58 445.50 22Q381-14 303-14Q185-14 122 55.50Q59 125 58 262M195 266Q195 194 222.50 151Q250 108 313 108Q359 108 396.50 135.50Q434 163 461 209.50Q488 256 502.50 316Q517 376 517 441Q517 520 486 556Q455 592 401 592Q356 592 318.50 566Q281 540 253.50 495.50Q226 451 210.50 391.50Q195 332 195 266M627-202Q579-215 532-215Q484-215 440-204.50Q396-194 355.50-182Q315-170 278-159.50Q241-149 205-149Q182-149 160-155L185-37Q213-31 241-31Q281-31 318.50-41Q356-51 394.50-62.50Q433-74 474-84Q515-94 562-94Q583-94 605.50-91.50Q628-89 652-83L627-202Z"  horiz-adv-x="644" vert-adv-y="1000"  />

      
      <glyph glyph-name="uni52" unicode="&#x52;" d="M167 693Q215 702 264 706Q313 710 352 710Q398 710 439 699Q480 688 510 665.50Q540 643 557.50 607.50Q575 572 575 524Q575 469 558.50 428.50Q542 388 515 360.50Q488 333 453.50 317.50Q419 302 383 297L422 266L519 0L375 0L279 274L210 287L150 0L20 0L167 693M230 380L283 380Q312 380 340 385.50Q368 391 389.50 405.50Q411 420 424.50 444Q438 468 438 505Q438 539 415 563.50Q392 588 341 588Q321 588 303.50 586.50Q286 585 274 583L230 380Z"  horiz-adv-x="584" vert-adv-y="1000"  />

      
      <glyph glyph-name="uni53" unicode="&#x53;" d="M502 559Q483 571 446 583.50Q409 596 364 596Q341 596 319 591.50Q297 587 280 577Q263 567 253 551Q243 535 243 513Q243 484 261 464Q279 444 306.50 426.50Q334 409 365.50 391Q397 373 424.50 349Q452 325 470 291.50Q488 258 488 209Q488 150 467.50 107.50Q447 65 409.50 38Q372 11 319.50-1.50Q267-14 203-14Q168-14 136.50-10Q105-6 78 0Q51 6 30.50 13.50Q10 21-2 28L65 144Q75 138 91 131Q107 124 127.50 118Q148 112 172 108Q196 104 220 104Q248 104 273 108.50Q298 113 316.50 123.50Q335 134 345.50 150Q356 166 356 190Q356 217 338 236Q320 255 292.50 272Q265 289 233.50 307.50Q202 326 174.50 351Q147 376 129 411.50Q111 447 111 498Q111 556 131.50 597Q152 638 187 664Q222 690 269 702Q316 714 370 714Q399 714 428 711Q457 708 483 702.50Q509 697 531 689.50Q553 682 568 673L502 559Z"  horiz-adv-x="510" vert-adv-y="1000"  />

      
      <glyph glyph-name="uni54" unicode="&#x54;" d="M614 578L420 578L297 0L168 0L290 578L96 578L122 700L639 700L614 578Z"  horiz-adv-x="547" vert-adv-y="1000"  />

      
      <glyph glyph-name="uni55" unicode="&#x55;" d="M531 700L653 700L558 248Q543 176 519 126.50Q495 77 461 46Q427 15 381 1.50Q335-12 275-12Q217-12 177 1.50Q137 15 111.50 40Q86 65 74.50 99Q63 133 63 174Q63 194 65.50 215Q68 236 73 259L167 700L296 700L204 260Q196 222 196 198Q196 150 221 130Q246 110 294 110Q354 110 387 145Q420 180 437 258L531 700Z"  horiz-adv-x="602" vert-adv-y="1000"  />

      
      <glyph glyph-name="uni56" unicode="&#x56;" d="M288 290L281 171L285 171L329 290L545 700L691 700L296-5L202-5L101 700L243 700L288 290Z"  horiz-adv-x="579" vert-adv-y="1000"  />

      
      <glyph glyph-name="uni57" unicode="&#x57;" d="M249 310L235 186L240 186L279 312L477 700L565 700L594 310L581 186L586 186L626 312L790 700L930 700L597-5L506-5L469 384L477 491L471 491L433 383L234-5L143-5L109 700L246 700L249 310Z"  horiz-adv-x="826" vert-adv-y="1000"  />

      
      <glyph glyph-name="uni58" unicode="&#x58;" d="M256 357L143 700L284 700L344 498L354 427L391 498L540 700L696 700L433 362L558 0L419 0L347 216L335 290L295 216L134 0L-24 0L256 357Z"  horiz-adv-x="608" vert-adv-y="1000"  />

      
      <glyph glyph-name="uni59" unicode="&#x59;" d="M231 260L106 700L250 700L315 437L313 363L317 363L348 439L523 700L672 700L361 261L306 0L177 0L231 260Z"  horiz-adv-x="569" vert-adv-y="1000"  />

      
      <glyph glyph-name="uni5a" unicode="&#x5a;" d="M15 122L375 538L433 578L112 578L137 700L598 700L573 578L211 159L155 122L476 122L450 0L-11 0L15 122Z"  horiz-adv-x="518" vert-adv-y="1000"  />

      
      <glyph glyph-name="uni5b" unicode="&#x5b;" d="M198 700L421 700L399 591L294 591L143-120L248-120L224-230L2-230L198 700Z"  horiz-adv-x="314" vert-adv-y="1000"  />

      
      <glyph glyph-name="uni5c" unicode="&#x5c;" d="M472-95L371-140L36 668L139 711L472-95Z"  horiz-adv-x="424" vert-adv-y="1000"  />

      
      <glyph glyph-name="uni5d" unicode="&#x5d;" d="M145-230L-78-230L-54-120L51-120L201 591L96 591L118 700L342 700L145-230Z"  horiz-adv-x="314" vert-adv-y="1000"  />

      
      <glyph glyph-name="uni5e" unicode="&#x5e;" d="M266 705L336 705L521 413L390 413L319 535L297 605L272 534L195 413L70 413L266 705Z"  horiz-adv-x="505" vert-adv-y="1000"  />

      
      <glyph glyph-name="uni5f" unicode="&#x5f;" d="M-46-117L398-117L398-224L-46-224L-46-117Z"  horiz-adv-x="444" vert-adv-y="1000"  />

      
      <glyph glyph-name="uni60" unicode="&#x60;" d="M305 566L236 566L145 690L152 720L281 720L305 566Z"  horiz-adv-x="274" vert-adv-y="1000"  />

      
      <glyph glyph-name="uni61" unicode="&#x61;" d="M444 200Q436 162 432.50 123Q429 84 429 49Q429 35 429.50 22.50Q430 10 431-1L340-1L326 85L322 85Q311 67 293.50 49.50Q276 32 255 17.50Q234 3 210.50-5.50Q187-14 162-14Q96-14 64.50 29Q33 72 33 144Q33 217 51.50 284Q70 351 109 402Q148 453 207.50 483.50Q267 514 349 514Q384 514 425.50 507.50Q467 501 506 490L444 200M209 89Q227 89 243 96.50Q259 104 272.50 116Q286 128 296.50 142Q307 156 315 168L365 401Q354 406 339.50 408.50Q325 411 311 411Q275 411 247 389.50Q219 368 199.50 333.50Q180 299 170 255.50Q160 212 160 168Q160 136 170.50 112.50Q181 89 209 89Z"  horiz-adv-x="503" vert-adv-y="1000"  />

      
      <glyph glyph-name="uni62" unicode="&#x62;" d="M164 700L287 700L225 412L229 412Q242 430 259 447.50Q276 465 296.50 479.50Q317 494 341 503Q365 512 394 512Q448 512 475 474Q502 436 502 373Q502 278 475.50 206Q449 134 406 85.50Q363 37 309 12.50Q255-12 200-12Q139-12 92.50-0.50Q46 11 22 28L164 700M160 105Q171 97 187 94Q203 91 222 91Q247 91 274 107.50Q301 124 323.50 156Q346 188 360.50 234.50Q375 281 375 340Q375 409 335 409Q315 409 295.50 398Q276 387 258 370.50Q240 354 225.50 335Q211 316 202 299L160 105Z"  horiz-adv-x="512" vert-adv-y="1000"  />

      
      <glyph glyph-name="uni63" unicode="&#x63;" d="M393 387Q374 398 353.50 402Q333 406 309 406Q282 406 256.50 388.50Q231 371 210.50 342.50Q190 314 178 276Q166 238 166 198Q166 147 188 120.50Q210 94 246 94Q276 94 301.50 103.50Q327 113 347 125L370 41Q338 17 295.50 1.50Q253-14 211-14Q163-14 129.50 0Q96 14 75 38Q54 62 44 93Q34 124 34 158Q34 242 58 308Q82 374 121.50 419.50Q161 465 211.50 489.50Q262 514 315 514Q362 514 389.50 505Q417 496 439 485L393 387Z"  horiz-adv-x="412" vert-adv-y="1000"  />

      
      <glyph glyph-name="uni64" unicode="&#x64;" d="M442 176Q433 134 429 98Q425 62 425 30Q425 22 425 14.50Q425 7 426-1L342-1L328 85L324 85Q313 67 295.50 49.50Q278 32 257 17.50Q236 3 212.50-5.50Q189-14 166-14Q104-14 70.50 30Q37 74 37 151Q37 221 56 286Q75 351 109.50 401.50Q144 452 193.50 482Q243 512 303 512Q332 512 351 508.50Q370 505 387 497L430 700L553 700L442 176M365 394Q353 402 337.50 405.50Q322 409 296 409Q266 409 241.50 388.50Q217 368 200 333.50Q183 299 173.50 254Q164 209 164 160Q164 131 177 110Q190 89 214 89Q229 89 244.50 96.50Q260 104 273.50 116Q287 128 298.50 142Q310 156 317 168L365 394Z"  horiz-adv-x="507" vert-adv-y="1000"  />

      
      <glyph glyph-name="uni65" unicode="&#x65;" d="M402 48Q371 22 322 4Q273-14 208-14Q127-14 80.50 33.50Q34 81 34 166Q34 246 59 310.50Q84 375 124.50 420Q165 465 216 489.50Q267 514 318 514Q359 514 388.50 503.50Q418 493 437 474.50Q456 456 465 432Q474 408 474 381Q474 340 453 309Q432 278 394.50 257.50Q357 237 304 226.50Q251 216 188 216Q180 216 173 216.50Q166 217 158 217Q156 205 155 195.50Q154 186 154 178Q154 133 177.50 111Q201 89 244 89Q288 89 323 102Q358 115 376 128L402 48M176 295Q204 295 235.50 297Q267 299 294 306.50Q321 314 339 328.50Q357 343 357 368Q357 383 346 398.50Q335 414 300 414Q256 414 223.50 380Q191 346 176 295Z"  horiz-adv-x="466" vert-adv-y="1000"  />

      
      <glyph glyph-name="uni66" unicode="&#x66;" d="M246 397L172-34Q166-71 155-102.50Q144-134 124.50-157.50Q105-181 75-194.50Q45-208 1-208Q-35-208-69.50-202.50Q-104-197-129-180L-95-89Q-78-96-61-98Q-44-100-18-100Q14-100 31.50-74.50Q49-49 58 8L121 397L51 397L73 500L137 500L150 567Q157 604 168 631.50Q179 659 197.50 677.50Q216 696 242.50 705Q269 714 308 714Q324 714 344.50 712.50Q365 711 385 707.50Q405 704 424 699Q443 694 458 687L429 596Q406 605 382 608Q358 611 335 611Q303 611 288.50 592Q274 573 268 533L262 500L362 500L342 397L246 397Z"  horiz-adv-x="294" vert-adv-y="1000"  />

      
      <glyph glyph-name="uni67" unicode="&#x67;" d="M407 0Q394-59 372-99.50Q350-140 319.50-165Q289-190 249.50-201Q210-212 162-212Q127-212 99.50-207Q72-202 51-195Q30-188 14.50-180.50Q-1-173-10-167L36-76Q45-80 57-85.50Q69-91 84.50-96.50Q100-102 120.50-105.50Q141-109 168-109Q218-109 247.50-78Q277-47 290 7L309 85L305 85Q282 49 242.50 20.50Q203-8 153-8Q99-8 65.50 32.50Q32 73 32 141Q32 218 54 285.50Q76 353 115.50 403.50Q155 454 209 483Q263 512 328 512Q389 512 434.50 501.50Q480 491 508 478L407 0M371 399Q360 405 343 407Q326 409 309 409Q277 409 249.50 390Q222 371 202 338Q182 305 170.50 260.50Q159 216 159 165Q159 133 172.50 114Q186 95 208 95Q225 95 243 105.50Q261 116 277.50 132Q294 148 307 167.50Q320 187 328 204L371 399Z"  horiz-adv-x="505" vert-adv-y="1000"  />

      
      <glyph glyph-name="uni68" unicode="&#x68;" d="M309 0L369 284Q379 328 379 357Q379 383 369 394.50Q359 406 338 406Q319 406 298 394Q277 382 258 364Q239 346 223.50 325.50Q208 305 200 288L141 0L18 0L166 700L289 700L226 412L230 412Q243 428 261.50 446Q280 464 302.50 479Q325 494 351.50 504Q378 514 409 514Q457 514 483.50 490Q510 466 510 405Q510 368 498 311L432 0L309 0Z"  horiz-adv-x="528" vert-adv-y="1000"  />

      
      <glyph glyph-name="uni69" unicode="&#x69;" d="M133 500L256 500L150 0L27 0L133 500M152 642Q152 675 173.50 693Q195 711 228 711Q260 711 282.50 693Q305 675 305 642Q305 610 282.50 591.50Q260 573 228 573Q195 573 173.50 591.50Q152 610 152 642Z"  horiz-adv-x="256" vert-adv-y="1000"  />

      
      <glyph glyph-name="uni6a" unicode="&#x6a;" d="M123 500L247 500L136-21Q117-111 72-158.50Q27-206-50-206Q-81-206-112-199L-88-93Q-63-95-45-88.50Q-27-82-14.50-68Q-2-54 6.50-32.50Q15-11 21 16L123 500M141 642Q141 675 162.50 693Q184 711 217 711Q249 711 271.50 693Q294 675 294 642Q294 610 271.50 591.50Q249 573 217 573Q184 573 162.50 591.50Q141 610 141 642Z"  horiz-adv-x="244" vert-adv-y="1000"  />

      
      <glyph glyph-name="uni6b" unicode="&#x6b;" d="M224 207L184 207L141 0L18 0L166 700L289 700L201 287L238 300L379 500L516 500L367 299L307 261L352 223L428 0L296 0L224 207Z"  horiz-adv-x="465" vert-adv-y="1000"  />

      
      <glyph glyph-name="uni6c" unicode="&#x6c;" d="M168 148Q162 119 168.50 105Q175 91 190 91Q218 91 243 102L240 13Q222 2 188-5Q154-12 121-12Q78-12 55.50 4.50Q33 21 33 66Q33 89 39 119L162 700L285 700L168 148Z"  horiz-adv-x="272" vert-adv-y="1000"  />

      
      <glyph glyph-name="uni6d" unicode="&#x6d;" d="M283 0L340 272Q346 300 349.50 321.50Q353 343 353 360Q353 406 318 406Q301 406 284 397Q267 388 252.50 374Q238 360 225.50 343.50Q213 327 205 312L141 0L18 0L124 500L220 500L214 412L218 412Q233 428 250.50 446Q268 464 290 479Q312 494 339 504Q366 514 398 514Q438 514 458.50 485Q479 456 477 408Q492 427 511.50 446Q531 465 553.50 480Q576 495 601.50 504.50Q627 514 654 514Q700 514 724.50 492.50Q749 471 749 412Q749 369 734 300L671 0L548 0L607 281Q612 304 615 324Q618 344 618 359Q618 382 609.50 394Q601 406 581 406Q565 406 548.50 396.50Q532 387 517 372.50Q502 358 489.50 341Q477 324 470 309L406 0L283 0Z"  horiz-adv-x="767" vert-adv-y="1000"  />

      
      <glyph glyph-name="uni6e" unicode="&#x6e;" d="M299 0L365 310Q371 338 371 359Q371 381 362 393.50Q353 406 329 406Q311 406 293 397Q275 388 259 373Q243 358 229 339.50Q215 321 205 302L141 0L18 0L124 500L217 500L212 412L216 412Q229 428 246.50 446Q264 464 287 479Q310 494 338.50 504Q367 514 403 514Q448 514 475 489.50Q502 465 502 408Q502 393 500.50 376Q499 359 494 339L422 0L299 0Z"  horiz-adv-x="521" vert-adv-y="1000"  />

      
      <glyph glyph-name="uni6f" unicode="&#x6f;" d="M34 162Q34 241 56.50 306Q79 371 116.50 417Q154 463 203.50 488.50Q253 514 307 514Q355 514 388 499Q421 484 441.50 459Q462 434 471 402Q480 370 480 336Q480 258 458 193.50Q436 129 399 83Q362 37 313 11.50Q264-14 210-14Q163-14 130 1.50Q97 17 75.50 42Q54 67 44 98.50Q34 130 34 162M161 179Q161 89 226 89Q250 89 273 110Q296 131 314 165Q332 199 342.50 242Q353 285 353 328Q353 368 339.50 389.50Q326 411 289 411Q265 411 242 391Q219 371 201 338.50Q183 306 172 264Q161 222 161 179Z"  horiz-adv-x="496" vert-adv-y="1000"  />

      
      <glyph glyph-name="uni70" unicode="&#x70;" d="M122 500L213 500L208 412L212 412Q226 431 244 449.50Q262 468 284 482Q306 496 331 505Q356 514 385 514Q436 514 467 479Q498 444 498 369Q498 284 475.50 213.50Q453 143 415.50 92.50Q378 42 327.50 14Q277-14 222-14Q196-14 173-9Q150-4 139 4L96-200L-26-200L122 500M160 106Q185 89 216 89Q247 89 275 110Q303 131 324.50 166Q346 201 358.50 247.50Q371 294 371 345Q371 374 357.50 392.50Q344 411 321 411Q303 411 286 402Q269 393 254 379.50Q239 366 227 349Q215 332 206 316L160 106Z"  horiz-adv-x="506" vert-adv-y="1000"  />

      
      <glyph glyph-name="uni71" unicode="&#x71;" d="M356-200L236-200L297 78L293 78Q283 61 268.50 45Q254 29 235.50 15.50Q217 2 195-6Q173-14 148-14Q115-14 92.50-1.50Q70 11 56 32.50Q42 54 35.50 81.50Q29 109 29 139Q29 215 53.50 283Q78 351 120.50 402Q163 453 219.50 482.50Q276 512 339 512Q387 512 432.50 501.50Q478 491 503 477L356-200M364 399Q350 405 335 407Q320 409 305 409Q275 409 247.50 387.50Q220 366 200 330.50Q180 295 168 249Q156 203 156 155Q156 124 167.50 106.50Q179 89 199 89Q218 89 237 100.50Q256 112 272.50 129.50Q289 147 302.50 167.50Q316 188 324 206L364 399Z"  horiz-adv-x="501" vert-adv-y="1000"  />

      
      <glyph glyph-name="uni72" unicode="&#x72;" d="M215 500L216 412L220 412Q242 452 273.50 480Q305 508 353 508Q374 508 403 500L372 393Q362 396 353 398Q344 400 334 400Q293 400 258.50 373.50Q224 347 206 312L141 0L18 0L124 500L215 500Z"  horiz-adv-x="343" vert-adv-y="1000"  />

      
      <glyph glyph-name="uni73" unicode="&#x73;" d="M38 117Q58 106 89.50 97.50Q121 89 156 89Q191 89 209.50 102.50Q228 116 229 144Q229 164 217 178.50Q205 193 186.50 206Q168 219 147 232.50Q126 246 107.50 263.50Q89 281 77 305Q65 329 65 363Q65 396 78 424Q91 452 114.50 472Q138 492 171.50 503Q205 514 247 514Q305 514 343 505.50Q381 497 403 484L369 390Q349 399 320.50 405Q292 411 261 411Q229 411 210.50 400Q192 389 192 365Q192 349 204 336.50Q216 324 234.50 311Q253 298 274 284.50Q295 271 313.50 252Q332 233 344 208.50Q356 184 356 150Q356 67 302 26.50Q248-14 158-14Q107-14 64.50-4.50Q22 5-1 19L38 117Z"  horiz-adv-x="396" vert-adv-y="1000"  />

      
      <glyph glyph-name="uni74" unicode="&#x74;" d="M64 500L129 500L149 594L280 631L252 500L369 500L346 397L230 397L181 171Q175 144 175 127Q175 105 185 97Q195 89 215 89Q234 89 249.50 93Q265 97 282 106L282 14Q271 8 255.50 2.50Q240-3 222-6.50Q204-10 185-12Q166-14 150-14Q99-14 71.50 9.50Q44 33 44 81Q44 91 45.50 102Q47 113 49 125L107 397L40 397L64 500Z"  horiz-adv-x="320" vert-adv-y="1000"  />

      
      <glyph glyph-name="uni75" unicode="&#x75;" d="M241 500L176 191Q170 161 170 141Q170 121 178 110Q186 99 206 99Q223 99 240.50 107.50Q258 116 274 129.50Q290 143 303.50 159.50Q317 176 326 192L390 500L513 500L450 200Q445 180 441.50 153Q438 126 435 97.50Q432 69 431 43Q430 17 431 0L332 0L327 90L323 90Q309 71 290.50 52.50Q272 34 249.50 19Q227 4 200.50-5Q174-14 144-14Q97-14 68 9.50Q39 33 39 96Q39 133 49 177L118 500L241 500Z"  horiz-adv-x="512" vert-adv-y="1000"  />

      
      <glyph glyph-name="uni76" unicode="&#x76;" d="M209 238L211 161L214 161L244 240L381 500L520 500L214-5L138-5L40 500L176 500L209 238Z"  horiz-adv-x="448" vert-adv-y="1000"  />

      
      <glyph glyph-name="uni77" unicode="&#x77;" d="M445 500L477 244L476 161L481 161L511 245L627 500L747 500L492-5L401-5L366 275L366 338L362 338L336 274L186-5L92-5L46 500L172 500L188 249L182 160L187 160L221 250L353 500L445 500Z"  horiz-adv-x="678" vert-adv-y="1000"  />

      
      <glyph glyph-name="uni78" unicode="&#x78;" d="M166 256L76 500L215 500L253 393L266 323L310 393L397 500L540 500L345 260L445 0L309 0L261 120L246 194L201 120L102 0L-41 0L166 256Z"  horiz-adv-x="496" vert-adv-y="1000"  />

      
      <glyph glyph-name="uni79" unicode="&#x79;" d="M216 219L217 141L223 141L250 220L386 500L517 500L277 51Q247-5 220.50-52Q194-99 167-133Q140-167 111-186Q82-205 49-205Q5-205-17-190L16-92Q22-95 28.50-96Q35-97 41-97Q65-97 90-74Q115-51 140 0L46 500L187 500L216 219Z"  horiz-adv-x="452" vert-adv-y="1000"  />

      
      <glyph glyph-name="uni7a" unicode="&#x7a;" d="M9 108L234 347L305 392L69 392L93 500L465 500L442 392L212 149L148 108L382 108L359 0L-13 0L9 108Z"  horiz-adv-x="435" vert-adv-y="1000"  />

      
      <glyph glyph-name="uni7b" unicode="&#x7b;" d="M122 96Q133 147 117.50 166Q102 185 65 185L87 285Q123 285 147 305.50Q171 326 180 370L224 579Q235 633 266 667Q297 701 351 701L465 701L442 591L394 591Q368 591 353.50 577Q339 563 332 531L291 336Q282 292 257 269.50Q232 247 205 242L203 232Q228 228 242.50 202Q257 176 248 134L207-60Q200-92 209-106Q218-120 245-120L292-120L268-230L154-230Q104-230 85-198.50Q66-167 79-109L122 96Z"  horiz-adv-x="356" vert-adv-y="1000"  />

      
      <glyph glyph-name="uni7c" unicode="&#x7c;" d="M94 700L200 700L200-130L94-130L94 700Z"  horiz-adv-x="232" vert-adv-y="1000"  />

      
      <glyph glyph-name="uni7d" unicode="&#x7d;" d="M266 375Q255 324 271 305Q287 286 324 286L303 186Q227 186 209 101L164-108Q153-162 120.50-196Q88-230 34-230L-76-230L-52-120L-4-120Q21-120 35-106.50Q49-93 56-60L98 135Q107 179 131.50 201.50Q156 224 184 229L187 239Q161 243 146 269Q131 295 140 337L181 531Q188 562 179.50 576.50Q171 591 144 591L98 591L120 701L233 701Q283 701 302.50 669.50Q322 638 310 580L266 375Z"  horiz-adv-x="356" vert-adv-y="1000"  />

      
      <glyph glyph-name="uni7e" unicode="&#x7e;" d="M45 378Q92 416 129.50 430.50Q167 445 199 445Q228 445 253 436.50Q278 428 301 418.50Q324 409 346.50 400.50Q369 392 392 392Q410 392 429 398Q448 404 469 421L516 318Q480 291 450 280Q420 269 394 269Q366 269 342 278Q318 287 295.50 298Q273 309 250 318Q227 327 201 327Q177 327 149.50 316.50Q122 306 89 278L45 378Z"  horiz-adv-x="505" vert-adv-y="1000"  />

      
      <glyph glyph-name="unia1" unicode="&#xa1;" d="M117-200L-10-200L59 129L118 291L196 291L187 129L117-200M100 435Q100 470 122 490.50Q144 511 180 511Q217 511 239 490.50Q261 470 261 435Q261 400 239 379Q217 358 180 358Q144 358 122 379Q100 400 100 435Z"  horiz-adv-x="279" vert-adv-y="1000"  />

      
      <glyph glyph-name="unia2" unicode="&#xa2;" d="M447 41Q426 24 395.50 11.50Q365-1 333-7L314-100L199-100L218-9Q185-2 161 14Q137 30 122 52.50Q107 75 100 102Q93 129 93 158Q93 233 112 293.50Q131 354 163.50 399Q196 444 239 472Q282 500 329 509L348 600L463 600L443 508Q489 499 515 485L470 387Q459 393 444.50 397Q430 401 414 403L349 98Q371 103 390.50 110Q410 117 423 125L447 41M327 398Q305 389 284.50 371Q264 353 248.50 327Q233 301 223.50 268.50Q214 236 214 198Q214 156 228 133Q242 110 264 101L327 398Z"  horiz-adv-x="545" vert-adv-y="1000"  />

      
      <glyph glyph-name="unia3" unicode="&#xa3;" d="M113 399L183 399Q178 419 174 442.50Q170 466 170 498Q170 554 191.50 595Q213 636 249 662.50Q285 689 331 701.50Q377 714 426 714Q471 714 511.50 704.50Q552 695 575 679L533 582Q516 591 486.50 598.50Q457 606 417 606Q393 606 370.50 597.50Q348 589 331.50 573Q315 557 305 535Q295 513 295 485Q295 456 299 436.50Q303 417 309 399L449 399L426 296L331 296Q331 292 331.50 289.50Q332 287 332 283Q332 233 311 192Q290 151 265 129L218 99L217 93L284 108L502 108L478 0L30 0L54 109L56 109Q86 110 113.50 123Q141 136 162 158.50Q183 181 195.50 211Q208 241 208 276Q208 281 208 286Q208 291 207 296L90 296L113 399Z"  horiz-adv-x="545" vert-adv-y="1000"  />

      
      <glyph glyph-name="unia4" unicode="&#xa4;" d="M117 622L195 545L214 508Q234 523 261.50 530.50Q289 538 319 538Q348 538 376.50 530.50Q405 523 424 509L444 545L522 622L599 542L522 464L484 448Q499 427 505 400.50Q511 374 511 345Q511 315 504.50 288.50Q498 262 484 244L522 228L599 150L522 70L444 147L426 184Q407 170 377.50 162Q348 154 319 154Q289 154 261.50 161.50Q234 169 214 183L195 147L117 70L41 150L118 228L154 245Q142 266 135 290.50Q128 315 128 345Q128 374 135.50 399Q143 424 155 447L118 464L41 542L117 622M237 346Q237 308 260 284Q283 260 320 260Q357 260 379.50 284Q402 308 402 346Q402 382 379.50 407Q357 432 320 432Q283 432 260 407Q237 382 237 346Z"  horiz-adv-x="545" vert-adv-y="1000"  />

      
      <glyph glyph-name="unia5" unicode="&#xa5;" d="M112 337L197 337L94 700L246 700L313 437L310 363L315 363L345 439L518 700L660 700L403 337L490 337L473 257L348 257L336 200L461 200L444 120L319 120L294 0L164 0L189 120L65 120L82 200L206 200L218 257L95 257L112 337Z"  horiz-adv-x="545" vert-adv-y="1000"  />

      
      <glyph glyph-name="unia6" unicode="&#xa6;" d="M60 213L167 213L167-130L60-130L60 213M167 357L60 357L60 700L167 700L167 357Z"  horiz-adv-x="227" vert-adv-y="1000"  />

      
      <glyph glyph-name="unia7" unicode="&#xa7;" d="M85 123Q105 112 135.50 100.50Q166 89 207 89Q242 89 263 102.50Q284 116 284 140Q284 156 268.50 167Q253 178 230 188Q207 198 179.50 209.50Q152 221 129 237Q106 253 90.50 276.50Q75 300 75 335Q75 380 99 411.50Q123 443 155 466L203 482Q181 498 170 520.50Q159 543 158 568Q158 598 172.50 625Q187 652 213 671.50Q239 691 275.50 702.50Q312 714 355 714Q411 714 448 702.50Q485 691 511 677L474 582Q454 593 420.50 602Q387 611 354 611Q319 611 300 596.50Q281 582 281 559Q281 542 296.50 531.50Q312 521 335 512.50Q358 504 385 495Q412 486 435 471Q458 456 473.50 432.50Q489 409 489 373Q489 325 464.50 290.50Q440 256 410 235L359 219Q382 203 393 182.50Q404 162 403 130Q402 61 348 23.50Q294-14 205-14Q150-14 108-0.50Q66 13 42 30L85 123M297 270Q320 282 341 302Q362 322 362 350Q362 367 356 378Q350 389 338 398Q326 407 307 414.50Q288 422 263 431Q241 419 221.50 399Q202 379 202 351Q202 320 224.50 303Q247 286 297 270Z"  horiz-adv-x="505" vert-adv-y="1000"  />

      
      <glyph glyph-name="unia8" unicode="&#xa8;" d="M163 651Q163 684 181.50 702.50Q200 721 229 721Q258 721 276.50 702.50Q295 684 295 651Q295 619 276.50 601Q258 583 229 583Q200 583 181.50 601Q163 619 163 651M371 652Q371 684 389.50 702.50Q408 721 437 721Q466 721 484.50 702.50Q503 684 503 652Q503 620 484.50 601.50Q466 583 437 583Q408 583 389.50 601.50Q371 620 371 652Z"  horiz-adv-x="472" vert-adv-y="1000"  />

      
      <glyph glyph-name="unia9" unicode="&#xa9;" d="M80 290Q80 373 108 439.50Q136 506 184.50 553Q233 600 299 625.50Q365 651 441 651Q517 651 582.50 625.50Q648 600 697 553Q746 506 774 439.50Q802 373 802 290Q802 207 774 140.50Q746 74 697 27Q648-20 582.50-45.50Q517-71 441-71Q358-71 291-45.50Q224-20 177 27Q130 74 105 140.50Q80 207 80 290M177 290Q177 228 197 178Q217 128 252 93.50Q287 59 335.50 40.50Q384 22 441 22Q498 22 546.50 40.50Q595 59 630.50 93.50Q666 128 685.50 178Q705 228 705 290Q705 352 685.50 402Q666 452 630.50 486.50Q595 521 546.50 539.50Q498 558 441 558Q384 558 335.50 539.50Q287 521 252 486.50Q217 452 197 402Q177 352 177 290M566 131Q544 117 510.50 108.50Q477 100 439 100Q358 100 315.50 151Q273 202 273 290Q273 381 318.50 430.50Q364 480 439 480Q476 480 504.50 471.50Q533 463 559 448L527 362Q509 371 494.50 374Q480 377 466 377Q437 377 420 357.50Q403 338 403 290Q403 248 421 225.50Q439 203 473 203Q492 203 507 206.50Q522 210 537 218L566 131Z"  horiz-adv-x="836" vert-adv-y="1000"  />

      
      <glyph glyph-name="uniaa" unicode="&#xaa;" d="M121 674Q149 688 193 698Q237 708 294 708Q354 708 378.50 683Q403 658 403 621Q403 596 396 564.50Q389 533 380.50 500Q372 467 365.50 435.50Q359 404 359 380L269 380L266 426L263 426Q249 409 222 392.50Q195 376 153 376Q130 376 112.50 383Q95 390 83.50 402Q72 414 66 429.50Q60 445 60 461Q60 495 75 517.50Q90 540 115 554Q140 568 173 574Q206 580 242 580Q254 580 266 579.50Q278 579 290 578Q298 603 289 618.50Q280 634 247 634Q209 634 182.50 627Q156 620 135 612L121 674M277 524Q269 525 260.50 525.50Q252 526 244 526Q214 526 193 517Q172 508 172 484Q172 471 179.50 462.50Q187 454 201 454Q231 454 245.50 465.50Q260 477 270 489L277 524Z"  horiz-adv-x="401" vert-adv-y="1000"  />

      
      <glyph glyph-name="uniab" unicode="&#xab;" d="M216 261L408 477L465 419L361 297L309 260L342 223L398 102L323 48L216 261M31 259L231 489L294 425L185 299L125 262L164 223L224 97L147 38L31 259Z"  horiz-adv-x="465" vert-adv-y="1000"  />

      
      <glyph glyph-name="uniac" unicode="&#xac;" d="M66 412L508 412L508 186L388 186L388 300L66 300L66 412Z"  horiz-adv-x="527" vert-adv-y="1000"  />

      
      <glyph glyph-name="uniad" unicode="&#xad;" d="M81 340L320 340L295 236L56 236L81 340Z"  horiz-adv-x="343" vert-adv-y="1000"  />

      
      <glyph glyph-name="uniae" unicode="&#xae;" d="M117 451Q117 518 139.50 570.50Q162 623 200.50 659Q239 695 290.50 714Q342 733 399 733Q458 733 509.50 714Q561 695 599.50 659Q638 623 660 570.50Q682 518 682 451Q682 383 659.50 330.50Q637 278 598 242Q559 206 507.50 187.50Q456 169 399 169Q340 169 288.50 187.50Q237 206 199 242Q161 278 139 330.50Q117 383 117 451M211 451Q211 403 226 367Q241 331 267 307Q293 283 327 271Q361 259 399 259Q439 259 473.50 270.50Q508 282 533.50 306Q559 330 573.50 366Q588 402 588 451Q588 499 573 535Q558 571 532 595Q506 619 471.50 631Q437 643 399 643Q357 643 322.50 630Q288 617 263 592Q238 567 224.50 531.50Q211 496 211 451M296 581Q312 586 341 588.50Q370 591 396 591Q438 591 468 573.50Q498 556 498 513Q498 481 477.50 464Q457 447 427 445L455 431L520 322L459 322L396 426L348 441L348 322L296 322L296 581M385 546Q374 546 364 545.50Q354 545 348 542L348 471L382 471Q411 471 427 480Q443 489 443 511Q443 546 385 546Z"  horiz-adv-x="693" vert-adv-y="1000"  />

      
      <glyph glyph-name="uniaf" unicode="&#xaf;" d="M157 658L465 658L446 566L138 566L157 658Z"  horiz-adv-x="421" vert-adv-y="1000"  />

      
      <glyph glyph-name="unib0" unicode="&#xb0;" d="M121 548Q121 585 134 615.50Q147 646 169.50 668Q192 690 222 702Q252 714 285 714Q319 714 349.50 703Q380 692 402.50 670.50Q425 649 438 618Q451 587 451 548Q451 509 438 478.50Q425 448 402.50 427Q380 406 349.50 395Q319 384 285 384Q252 384 222 395Q192 406 169.50 427Q147 448 134 478.50Q121 509 121 548M221 548Q221 516 240 497.50Q259 479 286 479Q313 479 332 497.50Q351 516 351 548Q351 580 332 599.50Q313 619 286 619Q259 619 240 599.50Q221 580 221 548Z"  horiz-adv-x="437" vert-adv-y="1000"  />

      
      <glyph glyph-name="unib1" unicode="&#xb1;" d="M58 517L220 517L220 682L337 682L337 517L499 517L499 405L337 405L337 299L220 299L220 405L58 405L58 517M58 253L499 253L499 141L58 141L58 253Z"  horiz-adv-x="505" vert-adv-y="1000"  />

      
      <glyph glyph-name="unib2" unicode="&#xb2;" d="M446 707Q445 647 408.50 597Q372 547 307 499L257 474L257 470L314 481L415 481L393 380L96 380L112 451Q141 469 179 495Q217 521 250.50 550Q284 579 307 609.50Q330 640 331 667Q331 685 321.50 695Q312 705 286 705Q260 705 235 696Q210 687 191 677L177 767Q214 788 253.50 797.50Q293 807 327 807Q384 807 415 781Q446 755 446 707Z"  horiz-adv-x="402" vert-adv-y="1000"  />

      
      <glyph glyph-name="unib3" unicode="&#xb3;" d="M227 468Q276 468 297 486.50Q318 505 317 528Q317 549 303 558Q289 567 240 568L199 568L207 606L292 687L338 711L282 705L174 705L195 800L464 800L450 738L348 645L313 628L313 623L340 626Q377 624 401 600Q425 576 425 537Q425 495 409.50 464Q394 433 367 413Q340 393 303 383Q266 373 223 373Q187 373 155.50 379.50Q124 386 104 397L144 487Q184 468 227 468Z"  horiz-adv-x="402" vert-adv-y="1000"  />

      
      <glyph glyph-name="unib4" unicode="&#xb4;" d="M210 720L335 720L329 690L196 566L127 566L210 720Z"  horiz-adv-x="267" vert-adv-y="1000"  />

      
      <glyph glyph-name="unib5" unicode="&#xb5;" d="M238 500L179 227Q172 196 172 168Q172 133 188 114.50Q204 96 239 96Q284 96 315 120Q346 144 366 185L434 500L557 500L485 163Q477 122 470.50 80.50Q464 39 465 0L375 0L358 74L355 74Q331 39 294.50 13.50Q258-12 208-12Q170-12 152 5Q134 22 126 48L121 48L117-67L89-200L-34-200L114 500L238 500Z"  horiz-adv-x="542" vert-adv-y="1000"  />

      
      <glyph glyph-name="uni03BC" unicode="&#x03BC;" d="M238 500L179 227Q172 196 172 168Q172 133 188 114.50Q204 96 239 96Q284 96 315 120Q346 144 366 185L434 500L557 500L485 163Q477 122 470.50 80.50Q464 39 465 0L375 0L358 74L355 74Q331 39 294.50 13.50Q258-12 208-12Q170-12 152 5Q134 22 126 48L121 48L117-67L89-200L-34-200L114 500L238 500Z"  horiz-adv-x="542" vert-adv-y="1000"  />

      
      <glyph glyph-name="unib6" unicode="&#xb6;" d="M399 700L505 700L505-130L399-130L399 700M214 294Q181 294 153 310.50Q125 327 104.50 355.50Q84 384 73 420.50Q62 457 62 498Q62 538 75 574.50Q88 611 112 639Q136 667 170 683.50Q204 700 246 700L320 700L320-130L214-130L214 294Z"  horiz-adv-x="538" vert-adv-y="1000"  />

      
      <glyph glyph-name="unib7" unicode="&#xb7;" d="M73 316Q73 351 95 371.50Q117 392 153 392Q190 392 212 371.50Q234 351 234 316Q234 281 212 260Q190 239 153 239Q117 239 95 260Q73 281 73 316Z"  horiz-adv-x="253" vert-adv-y="1000"  />

      
      <glyph glyph-name="unib8" unicode="&#xb8;" d="M112-43Q146-45 164-64Q182-83 182-112Q182-138 170.50-157Q159-176 139.50-188.50Q120-201 93.50-207Q67-213 37-213Q-1-213-40-204L-20-156Q31-161 50-150Q69-139 69-125Q69-93-9-95L66 0L145 0L112-43Z"  horiz-adv-x="284" vert-adv-y="1000"  />

      
      <glyph glyph-name="unib9" unicode="&#xb9;" d="M140 480L233 480L268 644L287 690L252 658L189 621L155 694L330 807L412 807L342 480L425 480L404 380L119 380L140 480Z"  horiz-adv-x="402" vert-adv-y="1000"  />

      
      <glyph glyph-name="uniba" unicode="&#xba;" d="M60 499Q60 553 78.50 593Q97 633 127 659.50Q157 686 193.50 699Q230 712 266 712Q332 712 366.50 681.50Q401 651 401 592Q401 535 384 493.50Q367 452 338 425Q309 398 271.50 385Q234 372 194 372Q132 372 96 406.50Q60 441 60 499M170 505Q169 483 180 469.50Q191 456 212 456Q245 456 268 490.50Q291 525 291 579Q291 628 248 628Q231 628 217 618Q203 608 192 591.50Q181 575 175 552.50Q169 530 170 505Z"  horiz-adv-x="399" vert-adv-y="1000"  />

      
      <glyph glyph-name="unibb" unicode="&#xbb;" d="M280 270L89 50L31 107L135 230L187 267L152 305L97 426L173 479L280 270M465 268L265 38L202 101L311 227L368 270L331 309L269 433L354 489L465 268Z"  horiz-adv-x="465" vert-adv-y="1000"  />

      
      <glyph glyph-name="unibc" unicode="&#xbc;" d="M618 715L703 665L273-14L187 39L618 715M766 78L694 78L677 0L581 0L598 78L402 78L416 145L681 428L768 428L713 167L785 167L766 78M635 253L652 306L647 306L616 257L556 191L515 159L567 167L617 167L635 253M231 544L251 590L215 558L152 522L115 597L294 707L375 707L284 280L175 280L231 544Z"  horiz-adv-x="840" vert-adv-y="1000"  />

      
      <glyph glyph-name="unibd" unicode="&#xbd;" d="M619 715L704 665L274-14L188 39L619 715M824 327Q823 267 786.50 217Q750 167 685 119L635 94L635 90L692 101L793 101L771 0L474 0L490 71Q519 89 557 115Q595 141 628.50 170Q662 199 685 229.50Q708 260 709 287Q709 305 699.50 315Q690 325 664 325Q638 325 613 316Q588 307 569 297L555 387Q592 408 631.50 417.50Q671 427 705 427Q762 427 793 401Q824 375 824 327M231 544L251 590L215 558L152 522L115 597L294 707L375 707L284 280L175 280L231 544Z"  horiz-adv-x="862" vert-adv-y="1000"  />

      
      <glyph glyph-name="unibe" unicode="&#xbe;" d="M643 715L728 665L298-14L212 39L643 715M791 78L719 78L702 0L606 0L623 78L427 78L441 145L706 428L793 428L738 167L810 167L791 78M660 253L677 306L672 306L641 257L581 191L540 159L592 167L642 167L660 253M187 368Q236 368 257 386.50Q278 405 277 428Q277 449 263 458Q249 467 200 468L159 468L167 506L252 587L298 611L242 605L134 605L155 700L424 700L410 638L308 545L273 528L273 523L300 526Q337 524 361 500Q385 476 385 437Q385 395 369.50 364Q354 333 327 313Q300 293 263 283Q226 273 183 273Q147 273 115.50 279.50Q84 286 64 297L104 387Q144 368 187 368Z"  horiz-adv-x="864" vert-adv-y="1000"  />

      
      <glyph glyph-name="unibf" unicode="&#xbf;" d="M332 293Q326 240 307.50 201.50Q289 163 264.50 134.50Q240 106 212.50 84.50Q185 63 162.50 43Q140 23 125 2Q110-19 110-47Q110-74 125.50-89Q141-104 181-104Q212-104 249-90.50Q286-77 315-58L345-152Q304-178 256-195Q208-212 139-212Q55-212 16-176.50Q-23-141-23-81Q-23-28-7 8Q9 44 34 71.50Q59 99 89.50 121Q120 143 147.50 167Q175 191 196.50 220.50Q218 250 226 293L332 293M213 435Q213 470 235 490.50Q257 511 293 511Q330 511 352 490.50Q374 470 374 435Q374 400 352 379Q330 358 293 358Q257 358 235 379Q213 400 213 435Z"  horiz-adv-x="430" vert-adv-y="1000"  />

      
      <glyph glyph-name="unic0" unicode="&#xc0;" d="M387 155L183 155L100 0L-38 0L351 705L447 705L538 0L407 0L387 155M240 265L382 265L366 421L367 531L362 531L322 420L240 265M491 752L401 752L270 840L276 870L416 870L491 752Z"  horiz-adv-x="582" vert-adv-y="1000"  />

      
      <glyph glyph-name="unic1" unicode="&#xc1;" d="M387 155L183 155L100 0L-38 0L351 705L447 705L538 0L407 0L387 155M240 265L382 265L366 421L367 531L362 531L322 420L240 265M441 870L598 870L592 840L420 752L316 752L441 870Z"  horiz-adv-x="582" vert-adv-y="1000"  />

      
      <glyph glyph-name="unic2" unicode="&#xc2;" d="M387 155L183 155L100 0L-38 0L351 705L447 705L538 0L407 0L387 155M240 265L382 265L366 421L367 531L362 531L322 420L240 265M388 870L475 870L576 777L568 738L480 738L435 779L422 813L395 780L328 738L234 738L243 778L388 870Z"  horiz-adv-x="582" vert-adv-y="1000"  />

      
      <glyph glyph-name="unic3" unicode="&#xc3;" d="M387 155L183 155L100 0L-38 0L351 705L447 705L538 0L407 0L387 155M240 265L382 265L366 421L367 531L362 531L322 420L240 265M240 800Q278 835 309 848Q340 861 367 861Q388 861 407.50 855.50Q427 850 445.50 843.50Q464 837 481.50 831.50Q499 826 517 826Q532 826 547 831Q562 836 578 850L588 783Q555 756 528 746Q501 736 477 736Q456 736 437.50 741.50Q419 747 401 753Q383 759 365.50 764.50Q348 770 329 770Q311 770 291.50 763Q272 756 249 737L240 800Z"  horiz-adv-x="582" vert-adv-y="1000"  />

      
      <glyph glyph-name="unic4" unicode="&#xc4;" d="M387 155L183 155L100 0L-38 0L351 705L447 705L538 0L407 0L387 155M240 265L382 265L366 421L367 531L362 531L322 420L240 265M246 798Q246 827 266 841.50Q286 856 318 856Q350 856 370 841.50Q390 827 390 798Q390 769 370 755Q350 741 318 741Q286 741 266 755Q246 769 246 798M450 798Q450 827 470 841.50Q490 856 522 856Q554 856 574 841.50Q594 827 594 798Q594 769 574 755Q554 741 522 741Q490 741 470 755Q450 769 450 798Z"  horiz-adv-x="582" vert-adv-y="1000"  />

      
      <glyph glyph-name="unic5" unicode="&#xc5;" d="M286 771Q286 789 292 805.50Q298 822 312.50 834.50Q327 847 351.50 854Q376 861 414 861Q484 861 513 837Q542 813 542 771Q542 739 521.50 715.50Q501 692 449 686L538 0L407 0L387 155L183 155L100 0L-38 0L344 693Q312 704 299 724Q286 744 286 771M382 265L366 421L367 531L362 531L322 420L240 265L382 265M370 771Q370 740 414 740Q439 740 449 748Q459 756 459 771Q459 804 414 804Q370 804 370 771Z"  horiz-adv-x="582" vert-adv-y="1000"  />

      
      <glyph glyph-name="unic6" unicode="&#xc6;" d="M449 530L405 436L289 281L403 281L455 530L449 530M379 170L208 170L80 0L-66 0L481 700L614 700L885 700L859 578L595 578L560 415L801 415L775 293L535 293L499 122L768 122L742 0L481 0L343 0L379 170Z"  horiz-adv-x="826" vert-adv-y="1000"  />

      
      <glyph glyph-name="unic7" unicode="&#xc7;" d="M483 29Q418-13 326-14L304-43Q338-45 356-63.50Q374-82 374-111Q374-137 362.50-156Q351-175 331.50-187.50Q312-200 285.50-206Q259-212 229-212Q191-212 152-203L172-155Q223-160 242-149Q261-138 261-124Q261-107 241-100.50Q221-94 183-95L252-7Q203 3 166.50 28.50Q130 54 106 91Q82 128 70 174Q58 220 58 272Q58 390 91 473.50Q124 557 178 610.50Q232 664 301.50 689Q371 714 444 714Q501 714 541.50 705.50Q582 697 605 686L554 570Q534 581 506 586.50Q478 592 435 592Q384 592 340 571Q296 550 264 511Q232 472 213.50 416Q195 360 195 289Q195 204 237.50 156Q280 108 351 108Q396 108 425.50 117.50Q455 127 481 141L483 29Z"  horiz-adv-x="537" vert-adv-y="1000"  />

      
      <glyph glyph-name="unic8" unicode="&#xc8;" d="M168 700L298 700L562 700L536 578L272 578L237 415L478 415L451 293L212 293L175 122L444 122L419 0L150 0L20 0L168 700M452 752L362 752L231 840L237 870L377 870L452 752Z"  horiz-adv-x="503" vert-adv-y="1000"  />

      
      <glyph glyph-name="unic9" unicode="&#xc9;" d="M168 700L298 700L562 700L536 578L272 578L237 415L478 415L451 293L212 293L175 122L444 122L419 0L150 0L20 0L168 700M423 870L580 870L574 840L402 752L298 752L423 870Z"  horiz-adv-x="503" vert-adv-y="1000"  />

      
      <glyph glyph-name="unica" unicode="&#xca;" d="M168 700L298 700L562 700L536 578L272 578L237 415L478 415L451 293L212 293L175 122L444 122L419 0L150 0L20 0L168 700M359 870L446 870L547 777L539 738L451 738L406 779L393 813L366 780L299 738L205 738L214 778L359 870Z"  horiz-adv-x="503" vert-adv-y="1000"  />

      
      <glyph glyph-name="unicb" unicode="&#xcb;" d="M168 700L298 700L562 700L536 578L272 578L237 415L478 415L451 293L212 293L175 122L444 122L419 0L150 0L20 0L168 700M210 798Q210 827 230 841.50Q250 856 282 856Q314 856 334 841.50Q354 827 354 798Q354 769 334 755Q314 741 282 741Q250 741 230 755Q210 769 210 798M414 798Q414 827 434 841.50Q454 856 486 856Q518 856 538 841.50Q558 827 558 798Q558 769 538 755Q518 741 486 741Q454 741 434 755Q414 769 414 798Z"  horiz-adv-x="503" vert-adv-y="1000"  />

      
      <glyph glyph-name="unicc" unicode="&#xcc;" d="M183 700L312 700L164 0L35 0L183 700M334 752L244 752L113 840L119 870L259 870L334 752Z"  horiz-adv-x="278" vert-adv-y="1000"  />

      
      <glyph glyph-name="unicd" unicode="&#xcd;" d="M183 700L312 700L164 0L35 0L183 700M303 870L460 870L454 840L282 752L178 752L303 870Z"  horiz-adv-x="278" vert-adv-y="1000"  />

      
      <glyph glyph-name="unice" unicode="&#xce;" d="M183 700L312 700L164 0L35 0L183 700M241 870L328 870L429 777L421 738L333 738L288 779L275 813L248 780L181 738L87 738L96 778L241 870Z"  horiz-adv-x="278" vert-adv-y="1000"  />

      
      <glyph glyph-name="unicf" unicode="&#xcf;" d="M183 700L312 700L164 0L35 0L183 700M92 798Q92 827 112 841.50Q132 856 164 856Q196 856 216 841.50Q236 827 236 798Q236 769 216 755Q196 741 164 741Q132 741 112 755Q92 769 92 798M296 798Q296 827 316 841.50Q336 856 368 856Q400 856 420 841.50Q440 827 440 798Q440 769 420 755Q400 741 368 741Q336 741 316 755Q296 769 296 798Z"  horiz-adv-x="278" vert-adv-y="1000"  />

      
      <glyph glyph-name="unid0" unicode="&#xd0;" d="M40 401L125 401L188 700Q209 703 234 705Q259 707 281.50 708Q304 709 318 709Q328 709 344 709.50Q360 710 379 710Q441 710 491 694.50Q541 679 576.50 647Q612 615 631.50 565Q651 515 651 446Q651 402 643.50 351.50Q636 301 618 250Q600 199 568.50 152Q537 105 489.50 69Q442 33 375.50 11Q309-11 221-11Q206-11 192-10.50Q178-10 170-10Q152-9 126.50-7.50Q101-6 76.50-4.50Q52-3 40-1L108 321L23 321L40 401M254 401L386 401L369 321L237 321L194 114Q198 113 206.50 112.50Q215 112 225 111.50Q235 111 244 111Q253 111 258 111Q328 111 377 142.50Q426 174 456.50 221.50Q487 269 500.50 324.50Q514 380 514 428Q514 508 480.50 548Q447 588 368 588Q349 588 327 587Q305 586 293 584L254 401Z"  horiz-adv-x="640" vert-adv-y="1000"  />

      
      <glyph glyph-name="unid1" unicode="&#xd1;" d="M267 366L234 478L229 478L220 366L143 0L20 0L170 705L260 705L432 331L463 222L469 222L476 331L555 700L678 700L528-5L438-5L267 366M259 800Q297 835 328 848Q359 861 386 861Q407 861 426.50 855.50Q446 850 464.50 843.50Q483 837 500.50 831.50Q518 826 536 826Q551 826 566 831Q581 836 597 850L607 783Q574 756 547 746Q520 736 496 736Q475 736 456.50 741.50Q438 747 420 753Q402 759 384.50 764.50Q367 770 348 770Q330 770 310.50 763Q291 756 268 737L259 800Z"  horiz-adv-x="631" vert-adv-y="1000"  />

      
      <glyph glyph-name="unid2" unicode="&#xd2;" d="M58 262Q58 355 83.50 437.50Q109 520 156 581.50Q203 643 269.50 678.50Q336 714 418 714Q472 714 515.50 698Q559 682 589.50 648.50Q620 615 637 564Q654 513 654 443Q654 349 628.50 266Q603 183 556.50 120.50Q510 58 445.50 22Q381-14 303-14Q185-14 122 55.50Q59 125 58 262M195 266Q195 194 222.50 151Q250 108 313 108Q359 108 396.50 135.50Q434 163 461 209.50Q488 256 502.50 316Q517 376 517 441Q517 520 486 556Q455 592 401 592Q356 592 318.50 566Q281 540 253.50 495.50Q226 451 210.50 391.50Q195 332 195 266M511 752L421 752L290 840L296 870L436 870L511 752Z"  horiz-adv-x="644" vert-adv-y="1000"  />

      
      <glyph glyph-name="unid3" unicode="&#xd3;" d="M58 262Q58 355 83.50 437.50Q109 520 156 581.50Q203 643 269.50 678.50Q336 714 418 714Q472 714 515.50 698Q559 682 589.50 648.50Q620 615 637 564Q654 513 654 443Q654 349 628.50 266Q603 183 556.50 120.50Q510 58 445.50 22Q381-14 303-14Q185-14 122 55.50Q59 125 58 262M195 266Q195 194 222.50 151Q250 108 313 108Q359 108 396.50 135.50Q434 163 461 209.50Q488 256 502.50 316Q517 376 517 441Q517 520 486 556Q455 592 401 592Q356 592 318.50 566Q281 540 253.50 495.50Q226 451 210.50 391.50Q195 332 195 266M491 870L648 870L642 840L470 752L366 752L491 870Z"  horiz-adv-x="644" vert-adv-y="1000"  />

      
      <glyph glyph-name="unid4" unicode="&#xd4;" d="M58 262Q58 355 83.50 437.50Q109 520 156 581.50Q203 643 269.50 678.50Q336 714 418 714Q472 714 515.50 698Q559 682 589.50 648.50Q620 615 637 564Q654 513 654 443Q654 349 628.50 266Q603 183 556.50 120.50Q510 58 445.50 22Q381-14 303-14Q185-14 122 55.50Q59 125 58 262M195 266Q195 194 222.50 151Q250 108 313 108Q359 108 396.50 135.50Q434 163 461 209.50Q488 256 502.50 316Q517 376 517 441Q517 520 486 556Q455 592 401 592Q356 592 318.50 566Q281 540 253.50 495.50Q226 451 210.50 391.50Q195 332 195 266M423 870L510 870L611 777L603 738L515 738L470 779L457 813L430 780L363 738L269 738L278 778L423 870Z"  horiz-adv-x="644" vert-adv-y="1000"  />

      
      <glyph glyph-name="unid5" unicode="&#xd5;" d="M58 262Q58 355 83.50 437.50Q109 520 156 581.50Q203 643 269.50 678.50Q336 714 418 714Q472 714 515.50 698Q559 682 589.50 648.50Q620 615 637 564Q654 513 654 443Q654 349 628.50 266Q603 183 556.50 120.50Q510 58 445.50 22Q381-14 303-14Q185-14 122 55.50Q59 125 58 262M195 266Q195 194 222.50 151Q250 108 313 108Q359 108 396.50 135.50Q434 163 461 209.50Q488 256 502.50 316Q517 376 517 441Q517 520 486 556Q455 592 401 592Q356 592 318.50 566Q281 540 253.50 495.50Q226 451 210.50 391.50Q195 332 195 266M268 800Q306 835 337 848Q368 861 395 861Q416 861 435.50 855.50Q455 850 473.50 843.50Q492 837 509.50 831.50Q527 826 545 826Q560 826 575 831Q590 836 606 850L616 783Q583 756 556 746Q529 736 505 736Q484 736 465.50 741.50Q447 747 429 753Q411 759 393.50 764.50Q376 770 357 770Q339 770 319.50 763Q300 756 277 737L268 800Z"  horiz-adv-x="644" vert-adv-y="1000"  />

      
      <glyph glyph-name="unid6" unicode="&#xd6;" d="M58 262Q58 355 83.50 437.50Q109 520 156 581.50Q203 643 269.50 678.50Q336 714 418 714Q472 714 515.50 698Q559 682 589.50 648.50Q620 615 637 564Q654 513 654 443Q654 349 628.50 266Q603 183 556.50 120.50Q510 58 445.50 22Q381-14 303-14Q185-14 122 55.50Q59 125 58 262M195 266Q195 194 222.50 151Q250 108 313 108Q359 108 396.50 135.50Q434 163 461 209.50Q488 256 502.50 316Q517 376 517 441Q517 520 486 556Q455 592 401 592Q356 592 318.50 566Q281 540 253.50 495.50Q226 451 210.50 391.50Q195 332 195 266M270 798Q270 827 290 841.50Q310 856 342 856Q374 856 394 841.50Q414 827 414 798Q414 769 394 755Q374 741 342 741Q310 741 290 755Q270 769 270 798M474 798Q474 827 494 841.50Q514 856 546 856Q578 856 598 841.50Q618 827 618 798Q618 769 598 755Q578 741 546 741Q514 741 494 755Q474 769 474 798Z"  horiz-adv-x="644" vert-adv-y="1000"  />

      
      <glyph glyph-name="unid7" unicode="&#xd7;" d="M146 547L277 417L407 547L486 466L356 339L486 210L407 128L277 259L145 127L66 208L197 339L68 466L146 547Z"  horiz-adv-x="505" vert-adv-y="1000"  />

      
      <glyph glyph-name="unid8" unicode="&#xd8;" d="M58 262Q58 355 83.50 437.50Q109 520 156 581.50Q203 643 269.50 678.50Q336 714 418 714Q504 714 560 674L587 706L659 644L622 599Q637 569 645.50 530Q654 491 654 443Q654 349 628.50 266Q603 183 556.50 120.50Q510 58 445.50 22Q381-14 303-14Q213-14 154 27L127-5L57 59L91 101Q75 133 66.50 173Q58 213 58 262M474 568Q445 592 401 592Q356 592 318.50 566Q281 540 253.50 495.50Q226 451 210.50 391.50Q195 332 195 266Q195 256 195 247Q195 238 197 229L474 568M239 132Q267 108 313 108Q359 108 396.50 135.50Q434 163 461 209.50Q488 256 502.50 316Q517 376 517 441Q517 449 517 455.50Q517 462 516 469L239 132Z"  horiz-adv-x="644" vert-adv-y="1000"  />

      
      <glyph glyph-name="unid9" unicode="&#xd9;" d="M531 700L653 700L558 248Q543 176 519 126.50Q495 77 461 46Q427 15 381 1.50Q335-12 275-12Q217-12 177 1.50Q137 15 111.50 40Q86 65 74.50 99Q63 133 63 174Q63 194 65.50 215Q68 236 73 259L167 700L296 700L204 260Q196 222 196 198Q196 150 221 130Q246 110 294 110Q354 110 387 145Q420 180 437 258L531 700M489 752L399 752L268 840L274 870L414 870L489 752Z"  horiz-adv-x="602" vert-adv-y="1000"  />

      
      <glyph glyph-name="unida" unicode="&#xda;" d="M531 700L653 700L558 248Q543 176 519 126.50Q495 77 461 46Q427 15 381 1.50Q335-12 275-12Q217-12 177 1.50Q137 15 111.50 40Q86 65 74.50 99Q63 133 63 174Q63 194 65.50 215Q68 236 73 259L167 700L296 700L204 260Q196 222 196 198Q196 150 221 130Q246 110 294 110Q354 110 387 145Q420 180 437 258L531 700M487 870L644 870L638 840L466 752L362 752L487 870Z"  horiz-adv-x="602" vert-adv-y="1000"  />

      
      <glyph glyph-name="unidb" unicode="&#xdb;" d="M531 700L653 700L558 248Q543 176 519 126.50Q495 77 461 46Q427 15 381 1.50Q335-12 275-12Q217-12 177 1.50Q137 15 111.50 40Q86 65 74.50 99Q63 133 63 174Q63 194 65.50 215Q68 236 73 259L167 700L296 700L204 260Q196 222 196 198Q196 150 221 130Q246 110 294 110Q354 110 387 145Q420 180 437 258L531 700M409 870L496 870L597 777L589 738L501 738L456 779L443 813L416 780L349 738L255 738L264 778L409 870Z"  horiz-adv-x="602" vert-adv-y="1000"  />

      
      <glyph glyph-name="unidc" unicode="&#xdc;" d="M531 700L653 700L558 248Q543 176 519 126.50Q495 77 461 46Q427 15 381 1.50Q335-12 275-12Q217-12 177 1.50Q137 15 111.50 40Q86 65 74.50 99Q63 133 63 174Q63 194 65.50 215Q68 236 73 259L167 700L296 700L204 260Q196 222 196 198Q196 150 221 130Q246 110 294 110Q354 110 387 145Q420 180 437 258L531 700M256 798Q256 827 276 841.50Q296 856 328 856Q360 856 380 841.50Q400 827 400 798Q400 769 380 755Q360 741 328 741Q296 741 276 755Q256 769 256 798M460 798Q460 827 480 841.50Q500 856 532 856Q564 856 584 841.50Q604 827 604 798Q604 769 584 755Q564 741 532 741Q500 741 480 755Q460 769 460 798Z"  horiz-adv-x="602" vert-adv-y="1000"  />

      
      <glyph glyph-name="unidd" unicode="&#xdd;" d="M231 260L106 700L250 700L315 437L313 363L317 363L348 439L523 700L672 700L361 261L306 0L177 0L231 260M451 870L608 870L602 840L430 752L326 752L451 870Z"  horiz-adv-x="569" vert-adv-y="1000"  />

      
      <glyph glyph-name="unide" unicode="&#xde;" d="M169 700L298 700L283 629Q296 630 309 630Q322 630 335 630Q386 630 429.50 618.50Q473 607 505.50 583Q538 559 556 521.50Q574 484 574 432Q574 354 547 301.50Q520 249 475.50 216.50Q431 184 374 170.50Q317 157 258 157Q253 157 242.50 157Q232 157 220.50 157.50Q209 158 198.50 158.50Q188 159 183 160L150 0L20 0L169 700M257 507Q245 449 233 393Q221 337 209 280Q213 279 220 278Q227 277 235.50 276.50Q244 276 251.50 275.50Q259 275 263 275Q297 275 328.50 282Q360 289 384 305.50Q408 322 422.50 349Q437 376 437 415Q437 445 427.50 463.50Q418 482 402 493Q386 504 364.50 508Q343 512 319 512Q301 512 284.50 510.50Q268 509 257 507Z"  horiz-adv-x="550" vert-adv-y="1000"  />

      
      <glyph glyph-name="unidf" unicode="&#xdf;" d="M153 528Q165 585 188 620Q211 655 243 674.50Q275 694 315 701Q355 708 402 708Q453 708 488 697Q523 686 545 667.50Q567 649 577 624.50Q587 600 587 572Q587 537 575.50 512Q564 487 547 469Q530 451 509.50 438Q489 425 472 413Q455 401 443.50 388Q432 375 432 358Q432 341 443.50 330Q455 319 472 310Q489 301 509.50 291Q530 281 547 265.50Q564 250 575.50 226.50Q587 203 587 167Q587 128 569.50 94.50Q552 61 521.50 37Q491 13 449.50-0.50Q408-14 360-14Q319-14 279-2.50Q239 9 214 26L270 123Q291 110 314.50 100Q338 90 372 90Q387 90 402 95Q417 100 429 109Q441 118 448.50 131.50Q456 145 456 162Q456 181 444.50 193.50Q433 206 415.50 216Q398 226 377.50 236.50Q357 247 339.50 261.50Q322 276 310.50 297Q299 318 299 350Q299 379 310.50 400.50Q322 422 339.50 438Q357 454 377 466.50Q397 479 414.50 491Q432 503 443.50 516.50Q455 530 455 548Q455 571 437 585.50Q419 600 385 600Q337 600 308 573.50Q279 547 268 488L179 0Q170-51 158-90Q146-129 125.50-155Q105-181 75-194.50Q45-208 1-208Q-35-208-69.50-202.50Q-104-197-129-180L-95-89Q-78-96-61-98Q-44-100-18-100Q14-100 31.50-75Q49-50 57 0L128 398L46 398L66 500L147 500L153 528L153 528Z"  horiz-adv-x="608" vert-adv-y="1000"  />

      
      <glyph glyph-name="unie0" unicode="&#xe0;" d="M444 200Q436 162 432.50 123Q429 84 429 49Q429 35 429.50 22.50Q430 10 431-1L340-1L326 85L322 85Q311 67 293.50 49.50Q276 32 255 17.50Q234 3 210.50-5.50Q187-14 162-14Q96-14 64.50 29Q33 72 33 144Q33 217 51.50 284Q70 351 109 402Q148 453 207.50 483.50Q267 514 349 514Q384 514 425.50 507.50Q467 501 506 490L444 200M209 89Q227 89 243 96.50Q259 104 272.50 116Q286 128 296.50 142Q307 156 315 168L365 401Q354 406 339.50 408.50Q325 411 311 411Q275 411 247 389.50Q219 368 199.50 333.50Q180 299 170 255.50Q160 212 160 168Q160 136 170.50 112.50Q181 89 209 89M387 566L318 566L227 690L234 720L363 720L387 566Z"  horiz-adv-x="503" vert-adv-y="1000"  />

      
      <glyph glyph-name="unie1" unicode="&#xe1;" d="M444 200Q436 162 432.50 123Q429 84 429 49Q429 35 429.50 22.50Q430 10 431-1L340-1L326 85L322 85Q311 67 293.50 49.50Q276 32 255 17.50Q234 3 210.50-5.50Q187-14 162-14Q96-14 64.50 29Q33 72 33 144Q33 217 51.50 284Q70 351 109 402Q148 453 207.50 483.50Q267 514 349 514Q384 514 425.50 507.50Q467 501 506 490L444 200M209 89Q227 89 243 96.50Q259 104 272.50 116Q286 128 296.50 142Q307 156 315 168L365 401Q354 406 339.50 408.50Q325 411 311 411Q275 411 247 389.50Q219 368 199.50 333.50Q180 299 170 255.50Q160 212 160 168Q160 136 170.50 112.50Q181 89 209 89M381 720L506 720L500 690L367 566L298 566L381 720Z"  horiz-adv-x="503" vert-adv-y="1000"  />

      
      <glyph glyph-name="unie2" unicode="&#xe2;" d="M444 200Q436 162 432.50 123Q429 84 429 49Q429 35 429.50 22.50Q430 10 431-1L340-1L326 85L322 85Q311 67 293.50 49.50Q276 32 255 17.50Q234 3 210.50-5.50Q187-14 162-14Q96-14 64.50 29Q33 72 33 144Q33 217 51.50 284Q70 351 109 402Q148 453 207.50 483.50Q267 514 349 514Q384 514 425.50 507.50Q467 501 506 490L444 200M209 89Q227 89 243 96.50Q259 104 272.50 116Q286 128 296.50 142Q307 156 315 168L365 401Q354 406 339.50 408.50Q325 411 311 411Q275 411 247 389.50Q219 368 199.50 333.50Q180 299 170 255.50Q160 212 160 168Q160 136 170.50 112.50Q181 89 209 89M345 732L427 732L494 550L398 550L374 616L370 665L343 616L286 550L189 550L345 732Z"  horiz-adv-x="503" vert-adv-y="1000"  />

      
      <glyph glyph-name="unie3" unicode="&#xe3;" d="M444 200Q436 162 432.50 123Q429 84 429 49Q429 35 429.50 22.50Q430 10 431-1L340-1L326 85L322 85Q311 67 293.50 49.50Q276 32 255 17.50Q234 3 210.50-5.50Q187-14 162-14Q96-14 64.50 29Q33 72 33 144Q33 217 51.50 284Q70 351 109 402Q148 453 207.50 483.50Q267 514 349 514Q384 514 425.50 507.50Q467 501 506 490L444 200M209 89Q227 89 243 96.50Q259 104 272.50 116Q286 128 296.50 142Q307 156 315 168L365 401Q354 406 339.50 408.50Q325 411 311 411Q275 411 247 389.50Q219 368 199.50 333.50Q180 299 170 255.50Q160 212 160 168Q160 136 170.50 112.50Q181 89 209 89M196 658Q231 695 257.50 709Q284 723 306 723Q324 723 339.50 716Q355 709 370.50 701Q386 693 401.50 686Q417 679 435 679Q449 679 465.50 685Q482 691 502 706L506 636Q474 604 449 591.50Q424 579 403 579Q385 579 369 585.50Q353 592 337 600Q321 608 305 614.50Q289 621 271 621Q256 621 238 615Q220 609 200 593L196 658Z"  horiz-adv-x="503" vert-adv-y="1000"  />

      
      <glyph glyph-name="unie4" unicode="&#xe4;" d="M444 200Q436 162 432.50 123Q429 84 429 49Q429 35 429.50 22.50Q430 10 431-1L340-1L326 85L322 85Q311 67 293.50 49.50Q276 32 255 17.50Q234 3 210.50-5.50Q187-14 162-14Q96-14 64.50 29Q33 72 33 144Q33 217 51.50 284Q70 351 109 402Q148 453 207.50 483.50Q267 514 349 514Q384 514 425.50 507.50Q467 501 506 490L444 200M209 89Q227 89 243 96.50Q259 104 272.50 116Q286 128 296.50 142Q307 156 315 168L365 401Q354 406 339.50 408.50Q325 411 311 411Q275 411 247 389.50Q219 368 199.50 333.50Q180 299 170 255.50Q160 212 160 168Q160 136 170.50 112.50Q181 89 209 89M170 651Q170 684 188.50 702.50Q207 721 236 721Q265 721 283.50 702.50Q302 684 302 651Q302 619 283.50 601Q265 583 236 583Q207 583 188.50 601Q170 619 170 651M378 652Q378 684 396.50 702.50Q415 721 444 721Q473 721 491.50 702.50Q510 684 510 652Q510 620 491.50 601.50Q473 583 444 583Q415 583 396.50 601.50Q378 620 378 652Z"  horiz-adv-x="503" vert-adv-y="1000"  />

      
      <glyph glyph-name="unie5" unicode="&#xe5;" d="M444 200Q436 162 432.50 123Q429 84 429 49Q429 35 429.50 22.50Q430 10 431-1L340-1L326 85L322 85Q311 67 293.50 49.50Q276 32 255 17.50Q234 3 210.50-5.50Q187-14 162-14Q96-14 64.50 29Q33 72 33 144Q33 217 51.50 284Q70 351 109 402Q148 453 207.50 483.50Q267 514 349 514Q384 514 425.50 507.50Q467 501 506 490L444 200M209 89Q227 89 243 96.50Q259 104 272.50 116Q286 128 296.50 142Q307 156 315 168L365 401Q354 406 339.50 408.50Q325 411 311 411Q275 411 247 389.50Q219 368 199.50 333.50Q180 299 170 255.50Q160 212 160 168Q160 136 170.50 112.50Q181 89 209 89M254 647Q254 689 282.50 716Q311 743 365 743Q416 743 446 718.50Q476 694 476 647Q476 608 446.50 580.50Q417 553 365 553Q312 553 283 578.50Q254 604 254 647M326 647Q326 631 337.50 622.50Q349 614 365 614Q382 614 393 622Q404 630 404 647Q404 664 392.50 672.50Q381 681 365 681Q349 681 337.50 673Q326 665 326 647Z"  horiz-adv-x="503" vert-adv-y="1000"  />

      
      <glyph glyph-name="unie6" unicode="&#xe6;" d="M312 223Q304 224 295.50 224Q287 224 279 224Q222 224 183 205.50Q144 187 144 148Q144 121 158 109Q172 97 195 97Q213 97 229.50 104.50Q246 112 260 122.50Q274 133 285 144.50Q296 156 303 165L312 223M315 77Q283 41 241 16.50Q199-8 142-8Q109-8 85.50 2.50Q62 13 47 30.50Q32 48 24.50 71Q17 94 17 118Q17 167 39 202Q61 237 99 259Q137 281 187 291.50Q237 302 294 302Q302 302 310.50 302Q319 302 327 301Q338 339 338 360Q338 384 323 395.50Q308 407 272 407Q239 407 202 399Q165 391 133 378L115 471Q156 491 209.50 500.50Q263 510 313 510Q359 510 391 495.50Q423 481 436 450Q465 481 508.50 497.50Q552 514 597 514Q639 514 668.50 504.50Q698 495 716.50 478Q735 461 743.50 438.50Q752 416 752 389Q752 333 725.50 299Q699 265 654 245.50Q609 226 550 219Q491 212 427 212Q426 204 425.50 196.50Q425 189 425 182Q425 137 448 113Q471 89 524 89Q562 89 595.50 99.50Q629 110 649 122L672 36Q638 12 586.50-1Q535-14 484-14Q418-14 377.50 10Q337 34 320 77L315 77M447 292Q479 292 512 293.50Q545 295 572 302.50Q599 310 616 325.50Q633 341 633 368Q633 385 621 399.50Q609 414 576 414Q523 414 492.50 378.50Q462 343 447 292Z"  horiz-adv-x="744" vert-adv-y="1000"  />

      
      <glyph glyph-name="unie7" unicode="&#xe7;" d="M370 41Q344 22 312 8Q280-6 246-11L222-43Q256-45 274-63.50Q292-82 292-111Q292-137 280.50-156Q269-175 249.50-187.50Q230-200 203.50-206Q177-212 147-212Q109-212 70-203L90-155Q141-160 160-149Q179-138 179-124Q179-107 159-100.50Q139-94 101-95L167-10Q131-4 106 11.50Q81 27 65 49.50Q49 72 41.50 100Q34 128 34 158Q34 242 58 308Q82 374 121.50 419.50Q161 465 211.50 489.50Q262 514 315 514Q362 514 389.50 505Q417 496 439 485L393 387Q374 398 353.50 402Q333 406 309 406Q282 406 256.50 388.50Q231 371 210.50 342.50Q190 314 178 276Q166 238 166 198Q166 147 188 120.50Q210 94 246 94Q276 94 301.50 103.50Q327 113 347 125L370 41Z"  horiz-adv-x="412" vert-adv-y="1000"  />

      
      <glyph glyph-name="unie8" unicode="&#xe8;" d="M402 48Q371 22 322 4Q273-14 208-14Q127-14 80.50 33.50Q34 81 34 166Q34 246 59 310.50Q84 375 124.50 420Q165 465 216 489.50Q267 514 318 514Q359 514 388.50 503.50Q418 493 437 474.50Q456 456 465 432Q474 408 474 381Q474 340 453 309Q432 278 394.50 257.50Q357 237 304 226.50Q251 216 188 216Q180 216 173 216.50Q166 217 158 217Q156 205 155 195.50Q154 186 154 178Q154 133 177.50 111Q201 89 244 89Q288 89 323 102Q358 115 376 128L402 48M176 295Q204 295 235.50 297Q267 299 294 306.50Q321 314 339 328.50Q357 343 357 368Q357 383 346 398.50Q335 414 300 414Q256 414 223.50 380Q191 346 176 295M367 566L298 566L207 690L214 720L343 720L367 566Z"  horiz-adv-x="466" vert-adv-y="1000"  />

      
      <glyph glyph-name="unie9" unicode="&#xe9;" d="M402 48Q371 22 322 4Q273-14 208-14Q127-14 80.50 33.50Q34 81 34 166Q34 246 59 310.50Q84 375 124.50 420Q165 465 216 489.50Q267 514 318 514Q359 514 388.50 503.50Q418 493 437 474.50Q456 456 465 432Q474 408 474 381Q474 340 453 309Q432 278 394.50 257.50Q357 237 304 226.50Q251 216 188 216Q180 216 173 216.50Q166 217 158 217Q156 205 155 195.50Q154 186 154 178Q154 133 177.50 111Q201 89 244 89Q288 89 323 102Q358 115 376 128L402 48M176 295Q204 295 235.50 297Q267 299 294 306.50Q321 314 339 328.50Q357 343 357 368Q357 383 346 398.50Q335 414 300 414Q256 414 223.50 380Q191 346 176 295M365 720L490 720L484 690L351 566L282 566L365 720Z"  horiz-adv-x="466" vert-adv-y="1000"  />

      
      <glyph glyph-name="uniea" unicode="&#xea;" d="M402 48Q371 22 322 4Q273-14 208-14Q127-14 80.50 33.50Q34 81 34 166Q34 246 59 310.50Q84 375 124.50 420Q165 465 216 489.50Q267 514 318 514Q359 514 388.50 503.50Q418 493 437 474.50Q456 456 465 432Q474 408 474 381Q474 340 453 309Q432 278 394.50 257.50Q357 237 304 226.50Q251 216 188 216Q180 216 173 216.50Q166 217 158 217Q156 205 155 195.50Q154 186 154 178Q154 133 177.50 111Q201 89 244 89Q288 89 323 102Q358 115 376 128L402 48M176 295Q204 295 235.50 297Q267 299 294 306.50Q321 314 339 328.50Q357 343 357 368Q357 383 346 398.50Q335 414 300 414Q256 414 223.50 380Q191 346 176 295M322 732L404 732L471 550L375 550L351 616L347 665L320 616L263 550L166 550L322 732Z"  horiz-adv-x="466" vert-adv-y="1000"  />

      
      <glyph glyph-name="unieb" unicode="&#xeb;" d="M402 48Q371 22 322 4Q273-14 208-14Q127-14 80.50 33.50Q34 81 34 166Q34 246 59 310.50Q84 375 124.50 420Q165 465 216 489.50Q267 514 318 514Q359 514 388.50 503.50Q418 493 437 474.50Q456 456 465 432Q474 408 474 381Q474 340 453 309Q432 278 394.50 257.50Q357 237 304 226.50Q251 216 188 216Q180 216 173 216.50Q166 217 158 217Q156 205 155 195.50Q154 186 154 178Q154 133 177.50 111Q201 89 244 89Q288 89 323 102Q358 115 376 128L402 48M176 295Q204 295 235.50 297Q267 299 294 306.50Q321 314 339 328.50Q357 343 357 368Q357 383 346 398.50Q335 414 300 414Q256 414 223.50 380Q191 346 176 295M163 651Q163 684 181.50 702.50Q200 721 229 721Q258 721 276.50 702.50Q295 684 295 651Q295 619 276.50 601Q258 583 229 583Q200 583 181.50 601Q163 619 163 651M371 652Q371 684 389.50 702.50Q408 721 437 721Q466 721 484.50 702.50Q503 684 503 652Q503 620 484.50 601.50Q466 583 437 583Q408 583 389.50 601.50Q371 620 371 652Z"  horiz-adv-x="466" vert-adv-y="1000"  />

      
      <glyph glyph-name="uniec" unicode="&#xec;" d="M133 500L256 500L150 0L27 0L133 500M265 566L196 566L105 690L112 720L241 720L265 566Z"  horiz-adv-x="256" vert-adv-y="1000"  />

      
      <glyph glyph-name="unied" unicode="&#xed;" d="M133 500L256 500L150 0L27 0L133 500M237 720L362 720L356 690L223 566L154 566L237 720Z"  horiz-adv-x="256" vert-adv-y="1000"  />

      
      <glyph glyph-name="uniee" unicode="&#xee;" d="M133 500L256 500L150 0L27 0L133 500M204 732L286 732L353 550L257 550L233 616L229 665L202 616L145 550L48 550L204 732Z"  horiz-adv-x="256" vert-adv-y="1000"  />

      
      <glyph glyph-name="unief" unicode="&#xef;" d="M133 500L256 500L150 0L27 0L133 500M55 651Q55 684 73.50 702.50Q92 721 121 721Q150 721 168.50 702.50Q187 684 187 651Q187 619 168.50 601Q150 583 121 583Q92 583 73.50 601Q55 619 55 651M263 652Q263 684 281.50 702.50Q300 721 329 721Q358 721 376.50 702.50Q395 684 395 652Q395 620 376.50 601.50Q358 583 329 583Q300 583 281.50 601.50Q263 620 263 652Z"  horiz-adv-x="256" vert-adv-y="1000"  />

      
      <glyph glyph-name="unif0" unicode="&#xf0;" d="M262 592L332 621Q314 639 292.50 652Q271 665 248 673L345 714Q390 697 427 660L500 690L528 636L464 609Q481 578 491 540Q501 502 501 457Q501 334 477.50 245Q454 156 414 98.50Q374 41 321.50 13.50Q269-14 211-14Q131-14 84 33.50Q37 81 37 172Q37 242 57.50 302Q78 362 112.50 406Q147 450 192.50 474.50Q238 499 289 499Q358 499 390 461Q392 493 386 519.50Q380 546 369 569L294 538L262 592M164 177Q164 135 180.50 112Q197 89 226 89Q265 89 292.50 117Q320 145 337 185.50Q354 226 362 272Q370 318 369 353Q361 373 342.50 385Q324 397 298 397Q268 397 243.50 378Q219 359 201.50 328Q184 297 174 257.50Q164 218 164 177Z"  horiz-adv-x="508" vert-adv-y="1000"  />

      
      <glyph glyph-name="unif1" unicode="&#xf1;" d="M295 0L361 310Q367 338 367 359Q367 381 358 393.50Q349 406 325 406Q307 406 289 397Q271 388 255 373Q239 358 225 339.50Q211 321 201 302L137 0L14 0L120 500L213 500L208 412L212 412Q225 428 242.50 446Q260 464 283 479Q306 494 334.50 504Q363 514 399 514Q444 514 471 489.50Q498 465 498 408Q498 393 496.50 376Q495 359 490 339L418 0L295 0M202 658Q237 695 263.50 709Q290 723 312 723Q330 723 345.50 716Q361 709 376.50 701Q392 693 407.50 686Q423 679 441 679Q455 679 471.50 685Q488 691 508 706L512 636Q480 604 455 591.50Q430 579 409 579Q391 579 375 585.50Q359 592 343 600Q327 608 311 614.50Q295 621 277 621Q262 621 244 615Q226 609 206 593L202 658Z"  horiz-adv-x="521" vert-adv-y="1000"  />

      
      <glyph glyph-name="unif2" unicode="&#xf2;" d="M34 162Q34 241 56.50 306Q79 371 116.50 417Q154 463 203.50 488.50Q253 514 307 514Q355 514 388 499Q421 484 441.50 459Q462 434 471 402Q480 370 480 336Q480 258 458 193.50Q436 129 399 83Q362 37 313 11.50Q264-14 210-14Q163-14 130 1.50Q97 17 75.50 42Q54 67 44 98.50Q34 130 34 162M161 179Q161 89 226 89Q250 89 273 110Q296 131 314 165Q332 199 342.50 242Q353 285 353 328Q353 368 339.50 389.50Q326 411 289 411Q265 411 242 391Q219 371 201 338.50Q183 306 172 264Q161 222 161 179M375 566L306 566L215 690L222 720L351 720L375 566Z"  horiz-adv-x="496" vert-adv-y="1000"  />

      
      <glyph glyph-name="unif3" unicode="&#xf3;" d="M34 162Q34 241 56.50 306Q79 371 116.50 417Q154 463 203.50 488.50Q253 514 307 514Q355 514 388 499Q421 484 441.50 459Q462 434 471 402Q480 370 480 336Q480 258 458 193.50Q436 129 399 83Q362 37 313 11.50Q264-14 210-14Q163-14 130 1.50Q97 17 75.50 42Q54 67 44 98.50Q34 130 34 162M161 179Q161 89 226 89Q250 89 273 110Q296 131 314 165Q332 199 342.50 242Q353 285 353 328Q353 368 339.50 389.50Q326 411 289 411Q265 411 242 391Q219 371 201 338.50Q183 306 172 264Q161 222 161 179M363 720L488 720L482 690L349 566L280 566L363 720Z"  horiz-adv-x="496" vert-adv-y="1000"  />

      
      <glyph glyph-name="unif4" unicode="&#xf4;" d="M34 162Q34 241 56.50 306Q79 371 116.50 417Q154 463 203.50 488.50Q253 514 307 514Q355 514 388 499Q421 484 441.50 459Q462 434 471 402Q480 370 480 336Q480 258 458 193.50Q436 129 399 83Q362 37 313 11.50Q264-14 210-14Q163-14 130 1.50Q97 17 75.50 42Q54 67 44 98.50Q34 130 34 162M161 179Q161 89 226 89Q250 89 273 110Q296 131 314 165Q332 199 342.50 242Q353 285 353 328Q353 368 339.50 389.50Q326 411 289 411Q265 411 242 391Q219 371 201 338.50Q183 306 172 264Q161 222 161 179M319 732L401 732L468 550L372 550L348 616L344 665L317 616L260 550L163 550L319 732Z"  horiz-adv-x="496" vert-adv-y="1000"  />

      
      <glyph glyph-name="unif5" unicode="&#xf5;" d="M34 162Q34 241 56.50 306Q79 371 116.50 417Q154 463 203.50 488.50Q253 514 307 514Q355 514 388 499Q421 484 441.50 459Q462 434 471 402Q480 370 480 336Q480 258 458 193.50Q436 129 399 83Q362 37 313 11.50Q264-14 210-14Q163-14 130 1.50Q97 17 75.50 42Q54 67 44 98.50Q34 130 34 162M161 179Q161 89 226 89Q250 89 273 110Q296 131 314 165Q332 199 342.50 242Q353 285 353 328Q353 368 339.50 389.50Q326 411 289 411Q265 411 242 391Q219 371 201 338.50Q183 306 172 264Q161 222 161 179M178 658Q213 695 239.50 709Q266 723 288 723Q306 723 321.50 716Q337 709 352.50 701Q368 693 383.50 686Q399 679 417 679Q431 679 447.50 685Q464 691 484 706L488 636Q456 604 431 591.50Q406 579 385 579Q367 579 351 585.50Q335 592 319 600Q303 608 287 614.50Q271 621 253 621Q238 621 220 615Q202 609 182 593L178 658Z"  horiz-adv-x="496" vert-adv-y="1000"  />

      
      <glyph glyph-name="unif6" unicode="&#xf6;" d="M34 162Q34 241 56.50 306Q79 371 116.50 417Q154 463 203.50 488.50Q253 514 307 514Q355 514 388 499Q421 484 441.50 459Q462 434 471 402Q480 370 480 336Q480 258 458 193.50Q436 129 399 83Q362 37 313 11.50Q264-14 210-14Q163-14 130 1.50Q97 17 75.50 42Q54 67 44 98.50Q34 130 34 162M161 179Q161 89 226 89Q250 89 273 110Q296 131 314 165Q332 199 342.50 242Q353 285 353 328Q353 368 339.50 389.50Q326 411 289 411Q265 411 242 391Q219 371 201 338.50Q183 306 172 264Q161 222 161 179M163 651Q163 684 181.50 702.50Q200 721 229 721Q258 721 276.50 702.50Q295 684 295 651Q295 619 276.50 601Q258 583 229 583Q200 583 181.50 601Q163 619 163 651M371 652Q371 684 389.50 702.50Q408 721 437 721Q466 721 484.50 702.50Q503 684 503 652Q503 620 484.50 601.50Q466 583 437 583Q408 583 389.50 601.50Q371 620 371 652Z"  horiz-adv-x="496" vert-adv-y="1000"  />

      
      <glyph glyph-name="unif7" unicode="&#xf7;" d="M58 394L500 394L500 282L58 282L58 394M199 534Q199 569 221 589.50Q243 610 279 610Q316 610 338 589.50Q360 569 360 534Q360 499 338 478Q316 457 279 457Q243 457 221 478Q199 499 199 534M199 139Q199 174 221 194.50Q243 215 279 215Q316 215 338 194.50Q360 174 360 139Q360 104 338 83Q316 62 279 62Q243 62 221 83Q199 104 199 139Z"  horiz-adv-x="505" vert-adv-y="1000"  />

      
      <glyph glyph-name="unif8" unicode="&#xf8;" d="M34 162Q34 241 56.50 306Q79 371 116.50 417Q154 463 203.50 488.50Q253 514 307 514Q339 514 364 507Q389 500 408 488L442 526L506 467L464 420Q480 382 480 336Q480 258 458 193.50Q436 129 399 83Q362 37 313 11.50Q264-14 210-14Q176-14 149.50-5.50Q123 3 103 17L66-24L0 36L47 90Q34 123 34 162M176 114Q192 89 226 89Q249 89 271 108.50Q293 128 310.50 159.50Q328 191 339.50 231Q351 271 353 312L176 114M337 392Q321 411 289 411Q266 411 244 392.50Q222 374 204.50 344Q187 314 175 275Q163 236 161 194L337 392Z"  horiz-adv-x="496" vert-adv-y="1000"  />

      
      <glyph glyph-name="unif9" unicode="&#xf9;" d="M241 500L176 191Q170 161 170 141Q170 121 178 110Q186 99 206 99Q223 99 240.50 107.50Q258 116 274 129.50Q290 143 303.50 159.50Q317 176 326 192L390 500L513 500L450 200Q445 180 441.50 153Q438 126 435 97.50Q432 69 431 43Q430 17 431 0L332 0L327 90L323 90Q309 71 290.50 52.50Q272 34 249.50 19Q227 4 200.50-5Q174-14 144-14Q97-14 68 9.50Q39 33 39 96Q39 133 49 177L118 500L241 500M372 566L303 566L212 690L219 720L348 720L372 566Z"  horiz-adv-x="512" vert-adv-y="1000"  />

      
      <glyph glyph-name="unifa" unicode="&#xfa;" d="M241 500L176 191Q170 161 170 141Q170 121 178 110Q186 99 206 99Q223 99 240.50 107.50Q258 116 274 129.50Q290 143 303.50 159.50Q317 176 326 192L390 500L513 500L450 200Q445 180 441.50 153Q438 126 435 97.50Q432 69 431 43Q430 17 431 0L332 0L327 90L323 90Q309 71 290.50 52.50Q272 34 249.50 19Q227 4 200.50-5Q174-14 144-14Q97-14 68 9.50Q39 33 39 96Q39 133 49 177L118 500L241 500M351 720L476 720L470 690L337 566L268 566L351 720Z"  horiz-adv-x="512" vert-adv-y="1000"  />

      
      <glyph glyph-name="unifb" unicode="&#xfb;" d="M241 500L176 191Q170 161 170 141Q170 121 178 110Q186 99 206 99Q223 99 240.50 107.50Q258 116 274 129.50Q290 143 303.50 159.50Q317 176 326 192L390 500L513 500L450 200Q445 180 441.50 153Q438 126 435 97.50Q432 69 431 43Q430 17 431 0L332 0L327 90L323 90Q309 71 290.50 52.50Q272 34 249.50 19Q227 4 200.50-5Q174-14 144-14Q97-14 68 9.50Q39 33 39 96Q39 133 49 177L118 500L241 500M325 732L407 732L474 550L378 550L354 616L350 665L323 616L266 550L169 550L325 732Z"  horiz-adv-x="512" vert-adv-y="1000"  />

      
      <glyph glyph-name="unifc" unicode="&#xfc;" d="M241 500L176 191Q170 161 170 141Q170 121 178 110Q186 99 206 99Q223 99 240.50 107.50Q258 116 274 129.50Q290 143 303.50 159.50Q317 176 326 192L390 500L513 500L450 200Q445 180 441.50 153Q438 126 435 97.50Q432 69 431 43Q430 17 431 0L332 0L327 90L323 90Q309 71 290.50 52.50Q272 34 249.50 19Q227 4 200.50-5Q174-14 144-14Q97-14 68 9.50Q39 33 39 96Q39 133 49 177L118 500L241 500M172 651Q172 684 190.50 702.50Q209 721 238 721Q267 721 285.50 702.50Q304 684 304 651Q304 619 285.50 601Q267 583 238 583Q209 583 190.50 601Q172 619 172 651M380 652Q380 684 398.50 702.50Q417 721 446 721Q475 721 493.50 702.50Q512 684 512 652Q512 620 493.50 601.50Q475 583 446 583Q417 583 398.50 601.50Q380 620 380 652Z"  horiz-adv-x="512" vert-adv-y="1000"  />

      
      <glyph glyph-name="unifd" unicode="&#xfd;" d="M216 219L217 141L223 141L250 220L386 500L517 500L277 51Q247-5 220.50-52Q194-99 167-133Q140-167 111-186Q82-205 49-205Q5-205-17-190L16-92Q22-95 28.50-96Q35-97 41-97Q65-97 90-74Q115-51 140 0L46 500L187 500L216 219M330 720L455 720L449 690L316 566L247 566L330 720Z"  horiz-adv-x="452" vert-adv-y="1000"  />

      
      <glyph glyph-name="unife" unicode="&#xfe;" d="M165 700L288 700L226 432L230 432Q242 448 257 463Q272 478 291 489Q310 500 333 507Q356 514 385 514Q436 514 467 479Q498 444 498 369Q498 284 475.50 213.50Q453 143 415.50 92.50Q378 42 327.50 14Q277-14 222-14Q196-14 173-9Q150-4 139 4L96-200L-26-200L165 700M160 106Q185 89 216 89Q247 89 274.50 110Q302 131 322.50 166Q343 201 355 247.50Q367 294 367 345Q367 374 355.50 392.50Q344 411 321 411Q303 411 286 402Q269 393 254 379.50Q239 366 227 349Q215 332 206 316L160 106Z"  horiz-adv-x="506" vert-adv-y="1000"  />

      
      <glyph glyph-name="uniff" unicode="&#xff;" d="M216 219L217 141L223 141L250 220L386 500L517 500L277 51Q247-5 220.50-52Q194-99 167-133Q140-167 111-186Q82-205 49-205Q5-205-17-190L16-92Q22-95 28.50-96Q35-97 41-97Q65-97 90-74Q115-51 140 0L46 500L187 500L216 219M131 651Q131 684 149.50 702.50Q168 721 197 721Q226 721 244.50 702.50Q263 684 263 651Q263 619 244.50 601Q226 583 197 583Q168 583 149.50 601Q131 619 131 651M339 652Q339 684 357.50 702.50Q376 721 405 721Q434 721 452.50 702.50Q471 684 471 652Q471 620 452.50 601.50Q434 583 405 583Q376 583 357.50 601.50Q339 620 339 652Z"  horiz-adv-x="452" vert-adv-y="1000"  />

      
      <glyph glyph-name="uni0100" unicode="&#x0100;" d="M387 155L183 155L100 0L-38 0L351 705L447 705L538 0L407 0L387 155M240 265L382 265L366 421L367 531L362 531L322 420L240 265M261 856L588 856L569 767L243 767L261 856Z"  horiz-adv-x="582" vert-adv-y="1000"  />

      
      <glyph glyph-name="uni0101" unicode="&#x0101;" d="M444 200Q436 162 432.50 123Q429 84 429 49Q429 35 429.50 22.50Q430 10 431-1L340-1L326 85L322 85Q311 67 293.50 49.50Q276 32 255 17.50Q234 3 210.50-5.50Q187-14 162-14Q96-14 64.50 29Q33 72 33 144Q33 217 51.50 284Q70 351 109 402Q148 453 207.50 483.50Q267 514 349 514Q384 514 425.50 507.50Q467 501 506 490L444 200M209 89Q227 89 243 96.50Q259 104 272.50 116Q286 128 296.50 142Q307 156 315 168L365 401Q354 406 339.50 408.50Q325 411 311 411Q275 411 247 389.50Q219 368 199.50 333.50Q180 299 170 255.50Q160 212 160 168Q160 136 170.50 112.50Q181 89 209 89M200 658L508 658L489 566L181 566L200 658Z"  horiz-adv-x="503" vert-adv-y="1000"  />

      
      <glyph glyph-name="uni0102" unicode="&#x0102;" d="M387 155L183 155L100 0L-38 0L351 705L447 705L538 0L407 0L387 155M240 265L382 265L366 421L367 531L362 531L322 420L240 265M295 875Q313 849 339 835Q365 821 404 821Q459 821 496 836Q533 851 561 875L610 843Q593 813 570 791.50Q547 770 520 756.50Q493 743 462.50 736.50Q432 730 401 730Q375 730 350.50 737.50Q326 745 305.50 759.50Q285 774 269.50 794Q254 814 247 838L295 875Z"  horiz-adv-x="582" vert-adv-y="1000"  />

      
      <glyph glyph-name="uni0103" unicode="&#x0103;" d="M444 200Q436 162 432.50 123Q429 84 429 49Q429 35 429.50 22.50Q430 10 431-1L340-1L326 85L322 85Q311 67 293.50 49.50Q276 32 255 17.50Q234 3 210.50-5.50Q187-14 162-14Q96-14 64.50 29Q33 72 33 144Q33 217 51.50 284Q70 351 109 402Q148 453 207.50 483.50Q267 514 349 514Q384 514 425.50 507.50Q467 501 506 490L444 200M209 89Q227 89 243 96.50Q259 104 272.50 116Q286 128 296.50 142Q307 156 315 168L365 401Q354 406 339.50 408.50Q325 411 311 411Q275 411 247 389.50Q219 368 199.50 333.50Q180 299 170 255.50Q160 212 160 168Q160 136 170.50 112.50Q181 89 209 89M274 720Q295 661 358 661Q397 661 428.50 676.50Q460 692 481 720L532 693Q524 669 506.50 645.50Q489 622 464.50 604Q440 586 409 575Q378 564 345 564Q283 564 246 597.50Q209 631 207 688L274 720Z"  horiz-adv-x="503" vert-adv-y="1000"  />

      
      <glyph glyph-name="uni0104" unicode="&#x0104;" d="M387 155L183 155L100 0L-38 0L351 705L447 705L538 0L517 0Q485-12 463.50-31.50Q442-51 442-80Q442-114 480-114Q494-114 518-106L523-168Q505-181 473.50-191Q442-201 409-201Q361-201 337.50-179Q314-157 314-123Q314-99 323-79.50Q332-60 347-45Q362-30 381.50-19Q401-8 422 0L407 0L387 155M240 265L382 265L366 421L367 531L362 531L322 420L240 265Z"  horiz-adv-x="582" vert-adv-y="1000"  />

      
      <glyph glyph-name="uni0105" unicode="&#x0105;" d="M444 200Q436 162 432.50 123Q429 84 429 49Q429 35 429.50 22.50Q430 10 431-1L410-1Q379-13 358-32Q337-51 337-82Q338-113 374-115Q390-115 413-106L419-168Q400-181 368.50-191.50Q337-202 304-202Q256-202 232.50-180Q209-158 209-124Q209-98 220-77Q231-56 249.50-40Q268-24 291.50-13Q315-2 339 5L326 85L322 85Q311 67 293.50 49.50Q276 32 255 17.50Q234 3 210.50-5.50Q187-14 162-14Q98-14 65.50 29Q33 72 33 144Q33 217 52 284Q71 351 109.50 402Q148 453 207.50 483.50Q267 514 349 514Q384 514 425.50 507.50Q467 501 506 490L444 200M365 402Q354 407 339.50 409.50Q325 412 311 412Q274 411 246.50 390Q219 369 199.50 334Q180 299 170 255.50Q160 212 160 168Q160 136 171 112.50Q182 89 209 89Q227 89 243 96.50Q259 104 272.50 116Q286 128 296.50 142Q307 156 315 168L365 402Z"  horiz-adv-x="503" vert-adv-y="1000"  />

      
      <glyph glyph-name="uni0106" unicode="&#x0106;" d="M483 29Q416-14 319-14Q253-14 204 8Q155 30 122.50 69Q90 108 74 160Q58 212 58 272Q58 390 91 473.50Q124 557 178 610.50Q232 664 301.50 689Q371 714 444 714Q501 714 541.50 705.50Q582 697 605 686L554 570Q534 581 506 586.50Q478 592 435 592Q384 592 340 571Q296 550 264 511Q232 472 213.50 416Q195 360 195 289Q195 204 237.50 156Q280 108 351 108Q396 108 425.50 117.50Q455 127 481 141L483 29M498 870L655 870L649 840L477 752L373 752L498 870Z"  horiz-adv-x="537" vert-adv-y="1000"  />

      
      <glyph glyph-name="uni0107" unicode="&#x0107;" d="M393 387Q374 398 353.50 402Q333 406 309 406Q282 406 256.50 388.50Q231 371 210.50 342.50Q190 314 178 276Q166 238 166 198Q166 147 188 120.50Q210 94 246 94Q276 94 301.50 103.50Q327 113 347 125L370 41Q338 17 295.50 1.50Q253-14 211-14Q163-14 129.50 0Q96 14 75 38Q54 62 44 93Q34 124 34 158Q34 242 58 308Q82 374 121.50 419.50Q161 465 211.50 489.50Q262 514 315 514Q362 514 389.50 505Q417 496 439 485L393 387M349 720L474 720L468 690L335 566L266 566L349 720Z"  horiz-adv-x="412" vert-adv-y="1000"  />

      
      <glyph glyph-name="uni0108" unicode="&#x0108;" d="M483 29Q416-14 319-14Q253-14 204 8Q155 30 122.50 69Q90 108 74 160Q58 212 58 272Q58 390 91 473.50Q124 557 178 610.50Q232 664 301.50 689Q371 714 444 714Q501 714 541.50 705.50Q582 697 605 686L554 570Q534 581 506 586.50Q478 592 435 592Q384 592 340 571Q296 550 264 511Q232 472 213.50 416Q195 360 195 289Q195 204 237.50 156Q280 108 351 108Q396 108 425.50 117.50Q455 127 481 141L483 29M424 870L511 870L612 777L604 738L516 738L471 779L458 813L431 780L364 738L270 738L279 778L424 870Z"  horiz-adv-x="537" vert-adv-y="1000"  />

      
      <glyph glyph-name="uni0109" unicode="&#x0109;" d="M393 387Q374 398 353.50 402Q333 406 309 406Q282 406 256.50 388.50Q231 371 210.50 342.50Q190 314 178 276Q166 238 166 198Q166 147 188 120.50Q210 94 246 94Q276 94 301.50 103.50Q327 113 347 125L370 41Q338 17 295.50 1.50Q253-14 211-14Q163-14 129.50 0Q96 14 75 38Q54 62 44 93Q34 124 34 158Q34 242 58 308Q82 374 121.50 419.50Q161 465 211.50 489.50Q262 514 315 514Q362 514 389.50 505Q417 496 439 485L393 387M306 732L388 732L455 550L359 550L335 616L331 665L304 616L247 550L150 550L306 732Z"  horiz-adv-x="412" vert-adv-y="1000"  />

      
      <glyph glyph-name="uni010C" unicode="&#x010C;" d="M483 29Q416-14 319-14Q253-14 204 8Q155 30 122.50 69Q90 108 74 160Q58 212 58 272Q58 390 91 473.50Q124 557 178 610.50Q232 664 301.50 689Q371 714 444 714Q501 714 541.50 705.50Q582 697 605 686L554 570Q534 581 506 586.50Q478 592 435 592Q384 592 340 571Q296 550 264 511Q232 472 213.50 416Q195 360 195 289Q195 204 237.50 156Q280 108 351 108Q396 108 425.50 117.50Q455 127 481 141L483 29M483 737L399 737L298 831L306 870L398 870L439 825L451 795L476 824L540 870L638 870L630 830L483 737Z"  horiz-adv-x="537" vert-adv-y="1000"  />

      
      <glyph glyph-name="uni010D" unicode="&#x010D;" d="M393 387Q374 398 353.50 402Q333 406 309 406Q282 406 256.50 388.50Q231 371 210.50 342.50Q190 314 178 276Q166 238 166 198Q166 147 188 120.50Q210 94 246 94Q276 94 301.50 103.50Q327 113 347 125L370 41Q338 17 295.50 1.50Q253-14 211-14Q163-14 129.50 0Q96 14 75 38Q54 62 44 93Q34 124 34 158Q34 242 58 308Q82 374 121.50 419.50Q161 465 211.50 489.50Q262 514 315 514Q362 514 389.50 505Q417 496 439 485L393 387M346 550L259 550L189 732L292 732L315 666L320 617L348 666L404 732L502 732L346 550Z"  horiz-adv-x="412" vert-adv-y="1000"  />

      
      <glyph glyph-name="uni010E" unicode="&#x010E;" d="M168 700Q189 703 214 705Q239 707 260.50 708Q282 709 298 709Q307 709 323.50 709.50Q340 710 360 710Q421 710 471 694.50Q521 679 556.50 647Q592 615 611.50 565Q631 515 631 446Q631 402 623.50 351.50Q616 301 598 250Q580 199 548.50 152Q517 105 469.50 69Q422 33 355.50 11Q289-11 201-11Q186-11 171-10.50Q156-10 150-10Q130-9 105.50-7.50Q81-6 56.50-4.50Q32-3 20-1L168 700M174 114Q178 113 186.50 112.50Q195 112 205 111.50Q215 111 224 111Q233 111 238 111Q308 111 357 142.50Q406 174 436.50 221.50Q467 269 480.50 324.50Q494 380 494 428Q494 508 460.50 548Q427 588 349 588Q329 588 307 587Q285 586 273 584L174 114M428 737L344 737L243 831L251 870L343 870L384 825L396 795L421 824L485 870L583 870L575 830L428 737Z"  horiz-adv-x="620" vert-adv-y="1000"  />

      
      <glyph glyph-name="uni010F" unicode="&#x010F;" d="M442 176Q433 134 429 98Q425 62 425 30Q425 22 425 14.50Q425 7 426-1L342-1L328 85L324 85Q313 67 295.50 49.50Q278 32 257 17.50Q236 3 212.50-5.50Q189-14 166-14Q104-14 70.50 30Q37 74 37 151Q37 221 56 286Q75 351 109.50 401.50Q144 452 193.50 482Q243 512 303 512Q332 512 351 508.50Q370 505 387 497L430 700L553 700L442 176M365 394Q353 402 337.50 405.50Q322 409 296 409Q266 409 241.50 388.50Q217 368 200 333.50Q183 299 173.50 254Q164 209 164 160Q164 131 177 110Q190 89 214 89Q229 89 244.50 96.50Q260 104 273.50 116Q287 128 298.50 142Q310 156 317 168L365 394M717 700Q709 671 693 639.50Q677 608 658 579.50Q639 551 619.50 528.50Q600 506 587 496L540 527Q564 563 581.50 608.50Q599 654 609 700L717 700Z"  horiz-adv-x="507" vert-adv-y="1000"  />

      
      <glyph glyph-name="uni0110" unicode="&#x0110;" d="M40 401L125 401L188 700Q209 703 234 705Q259 707 281.50 708Q304 709 318 709Q328 709 344 709.50Q360 710 379 710Q441 710 491 694.50Q541 679 576.50 647Q612 615 631.50 565Q651 515 651 446Q651 402 643.50 351.50Q636 301 618 250Q600 199 568.50 152Q537 105 489.50 69Q442 33 375.50 11Q309-11 221-11Q206-11 192-10.50Q178-10 170-10Q152-9 126.50-7.50Q101-6 76.50-4.50Q52-3 40-1L108 321L23 321L40 401M254 401L386 401L369 321L237 321L194 114Q198 113 206.50 112.50Q215 112 225 111.50Q235 111 244 111Q253 111 258 111Q328 111 377 142.50Q426 174 456.50 221.50Q487 269 500.50 324.50Q514 380 514 428Q514 508 480.50 548Q447 588 368 588Q349 588 327 587Q305 586 293 584L254 401Z"  horiz-adv-x="640" vert-adv-y="1000"  />

      
      </font>
</defs>
</svg>
